<mxfile host="Electron" agent="Mozilla/5.0 (Windows NT 10.0; Win64; x64) AppleWebKit/537.36 (KHTML, like Gecko) draw.io/28.0.6 Chrome/138.0.7204.100 Electron/37.2.3 Safari/537.36" version="28.0.6">
  <diagram name="Page-1" id="CAk_-h56_-jgnnYxZy7N">
    <mxGraphModel dx="1586" dy="841" grid="0" gridSize="10" guides="1" tooltips="1" connect="1" arrows="1" fold="1" page="1" pageScale="1" pageWidth="1169" pageHeight="827" math="0" shadow="0">
      <root>
        <mxCell id="0" />
        <mxCell id="1" parent="0" />
        <mxCell id="LVvw4arzvhDbE_gQbjfP-1" value="&lt;font style=&quot;font-size: 14px;&quot;&gt;&lt;b&gt;AWS Cloud&lt;/b&gt;&lt;/font&gt;" style="sketch=0;outlineConnect=0;gradientColor=none;html=1;whiteSpace=wrap;fontSize=12;fontStyle=0;shape=mxgraph.aws4.group;grIcon=mxgraph.aws4.group_aws_cloud;strokeColor=#858B94;fillColor=none;verticalAlign=top;align=left;spacingLeft=30;fontColor=#858B94;dashed=0;" vertex="1" parent="1">
          <mxGeometry x="40" y="40" width="1080" height="760" as="geometry" />
        </mxCell>
        <mxCell id="LVvw4arzvhDbE_gQbjfP-2" value="&lt;font style=&quot;font-size: 14px;&quot;&gt;&lt;b&gt;us-east-1&lt;/b&gt;&lt;/font&gt;" style="points=[[0,0],[0.25,0],[0.5,0],[0.75,0],[1,0],[1,0.25],[1,0.5],[1,0.75],[1,1],[0.75,1],[0.5,1],[0.25,1],[0,1],[0,0.75],[0,0.5],[0,0.25]];outlineConnect=0;gradientColor=none;html=1;whiteSpace=wrap;fontSize=12;fontStyle=0;container=1;pointerEvents=0;collapsible=0;recursiveResize=0;shape=mxgraph.aws4.group;grIcon=mxgraph.aws4.group_region;strokeColor=#00A4A6;fillColor=#CCFFFF;verticalAlign=top;align=left;spacingLeft=30;fontColor=#147EBA;dashed=1;shadow=0;" vertex="1" parent="1">
          <mxGeometry x="70" y="80" width="1020" height="680" as="geometry" />
        </mxCell>
        <mxCell id="LVvw4arzvhDbE_gQbjfP-12" value="" style="shape=image;verticalLabelPosition=bottom;verticalAlign=top;imageAspect=0;aspect=fixed;image=data:image/png,iVBORw0KGgoAAAANSUhEUgAAAb8AAABxCAMAAAByWF0wAAAB+1BMVEX///8AAACurq76+vp/f3/Hx8f3mx4xMTHMGzP29vbp6eni4uK+GkDLy8vw8PDz8/OdnZ2Hh4fqeSHAGT3R0dGjo6O7GUKxGU6pqanBwcGUlJTGGTbZ2dlVVVVhYWE9PT2Pj4+0GUsfHx92dnZubm5PT09GRka3t7fIGTS4GUeuGVFZWVkLCws5OTnocyHlaiLfVSeEIXjmayLZQikpKSn0kx7iYSOpGVYaGhr2lADxm07gWyfcTCilAETxlTzpbwDxigDKABvWNyvUV2W5ACepAD2KHXJ+InxxAHX99Or85M74y6P727z5voP3qlD3wZX86dzyspD3r1z4uXL53M31sn3rh0vzmzbzqGT6yZvshjr3pTn4wIb2z7zyvqLkZALuoHnneDzvl1zujj3oi2jldkrvsZviWwnpimHcRgDniXX43tProYfzysDbOgDeXkLnoaLwubDVQEHXQTfMAArYZG/hjJPSQFLdZVzJABXbWlXoqa/ZOhnSLy/hdnHtvMDXYW3HQFnfkZrUeIbKZn7tztXpxc3QepHYl6TQj6PGaoO8SWvcrLvHpL+bAFmZQ4SoOHO5cpqrS4S6krLVvNGkYJN8AFqQO4LKsMqjcaORV5d7J4RmAHS2mr93O5BXAICAZJ+ak7IwEWs+LnVuao+no7mDg59APnJhXYpBuqUkAAAWgElEQVR4nO1dCXsTR5qWLRtLLVvCtmx8CCHA+MZgMAgvGCMwtkkymcxkdzJJFpiZJMNyHwF7GJuQADJHPLkME0yGzSZz7c/cquqW1N3fW0cLFA9rvXmC/bhL1VX11ndXt0KhKqqooooqXj5STbUQTVagbuKduJva+gqNuwoOq7dGio0B+umQdzMWrtjoq1DQV1MTM+6mS9VNXwXHv84RU627uQCqu+ms5AzWNzYqF77ZtJvNym6aKjmD9Q2l+qzpNewlqeylpqIzWN9QL7zpyu+o8rc20AiO4cp3qjvZXtk5rGdoVt7QAd2m7iRT0SmsazRr+DOKvWs1nSQrPYv1ix7N0ht5/hrxCxBFVhEQmpU3Ml2KzIvAgYrPYt0ioeMvbdDJsKaPoYpPY91C577UNOj70IlfoCxqFYGgzFoK6FPP2i6q9YeKQZ324tDWkPRbIP5TzGRdIjymXfxaTRdRbQ87f5KprEvEtYtf06HpQhdAVt2XCkLrvmhX32AHtP00c1mPUBePBDTar07fQ7X4VzGoi0cCB5QOqIH4GXiw5eHEiQp1/OrggMHyK5Nf2w06qMzQX3vnyL7Dr1em71cF6kMPDlKKDiyDz/dUZOjh8fF9+/YdObyuZbDJhD+V+5E2+HymIkN/Y3zDhn2cwTIIPPHG6/8/aNf7/ur1T5l83rh4FE5Eo7FkMpmyoomozmj+jPG3QUigafdFvD4+fuTIawYNo1aqvrajtq8pHg18E3mniWgqmYwlEnSGTW0dArWhWFuHLTbJtg7F2T1d8UhAUYHQnJqwYVI8qu9rTntleXhHuq5Tobrf3LDBIfDnBv27cOJNIblH3lI3S9amd7qGM5Zue/EimNXXky4lTIaH6nyJxeIVQQy/Hy8vbJF3aLL8iuqPkfod1s0q1qXwgtO1kuTb+IYigYF04WvjzscUchvLwLTUtraEtvtYX1ezg66+lEfE+lCusse9KzIZxltD8/Z6QQxPfHH3sE56MxPnv0bhP24x+bS6AJXq0mbw0lAKOQ3vCwoP/0J5By/eHS/SLtOgnYqccJ0mG+xTSKXTe9GNsiJbj3uDpmzawvxCxrFPcv1pkH3hkH3cSPxUxaPwxgajLjbTVTvBefiloG+kRbGgPrztEtv/gC06NGcJlAdiSTRV4EaZJ3HlN2rtekE9/3OvIyByI6KvHNSoOtDnvjmkR3fDBsmfAkgSXajBt9n/74y0TP67ak3dKNAnDCDiT3eQh0Phj0kmX68pcJdmxzYAd5U6arZ11jSE+mqG+lT2Z8hs8STluz6zT8s0jrbq64HfieLhw/h/jnPpa5k0VKDhX70juHvf5u/XpEFyp34gNQqNQhWSsG76IKtI4BY73Zxmwsfkhi3edkUBPaw7duRAkr80yd1I06cJfeHRCx+BJw8z/t4d5/QxSKfome57kx8w5sbflsmfSS4JjaUIKr1MmCwTG+Fs8rjjreys6RKyXMd+y0gnZOi+SFS+ofzg8kW94a1d8NaxTk6+d3jDuw59p6VTdOHEey0tI+8zoZXoz5TuFI8LEpeQCtr2lNkyOY5OzBaWBHdaeAiRCKnqr4YKUJIAAw3RCsDyYcbwzh54FPHJyZaRllOTjBKG0wYG8ARr1zJyePz19wv8veG53hZoLBl4DyN/HKO+MAg+yybu+NRxRd2kOv+A/IdeMIbNZh8+EEcbAinfsujzbvqTkyMjk6cmOXsje06flPPmIPzbPbxpy7tvFhwYbwBvkgh0A/l02rN8CthrXGc7+xt5zaaP/96hqt6AsLkBKlXQRZi2ikOVCj5r6PYquzp1mondqdN7GHbtOvMbPX1ndu3awz7xu5YPPvg3G+7LRokk32wJyjAKJQgxs5LOD+b3RJPsFvGkIusD3Je2UAiYW8ABFaE2SAxI3piFjQDuSIRRt4vxt4tj//4PdfR9dGY/a3j6F7+ZbHEweap0OW4WCXkAfJgA8RBF8CeUUfEoBZUbVRZUVWwLQRtCbaek5NTQVZuKc8RqMxK/2O1HnWLydOb3Z/bb+Egz1Q95w11nLnCpLRBY2pRxQz/cC5rSDi7ELnQZslYCEHfuBoEQlrpAtHBRD/8KhgWTnb68FA6j3Vv+FGPkzKldNn0HD6qrFefOHjzImv/XqTPcCNriV4oZwzIHf3umqyPTLAt06KKUtQ0KyChngABWm0emwACSodI2IssJyhkkWYH8vF7iY8HCspu/q5y/qx8x6jjOKus7587u3s0IPHie20CHwZHSZbih0i6/K4mdG/9tlMW0dG1nMmZ11korPooqgwRgYwkvlnqgRAnSSFcwAIblN/PotCiKL5Ev4ObvIhOp3Rc+ZP9wXFLxd+HSod2cwLcY5Q6BI5MljxUloep8w04i0fJbLLn7MlRf0g9RmfemmAEG6COJJ+TfG1Q6MvzPaAP6bwpGj9MDII7x8sc4OXdOsLf7kIq/i5cOMew+e/FDoWsZgYzB3xUvA32wEwQHwMPxvxpAVgzv9XUneeJZPgMMpKLEBbrE/tfvUH0iGoDwz++lgbBDojjAargPctj8XT17SOByVHpE/+KlvXtZi0tXfy+MIBfBXXtOF0uGYDHhfkJ6w7cqkmwyPX6CHXDZBGQAxSM7VQpo8AYhVM7sjK7EoLoBXGxJfgGMwm1LL3LmLl9dFPQtXrhyRzLL+F6OQ4vnLgojaDN4pqg9ozRlJDnuoxlPSFYMR+UXZE+1ZW4/wGo3y0bq1QDEcG6z/w78Z78mok1kyXzNKIRWXLy6KOhZvJq7hnsJz398VBBoLdpGkBPoCvepOyH146mX6nXrcFwEq2dQg8ruKwMQdzsJBxSrZ5Gp+NmDjIKChF+4iK+3TTY8EIa6L59nanHvpfM2f5fnb13HEcSN3LWjR4/uvfTWZW4DBYP79/+2eJm6HPLTAjS55DUOsBiOk89IGe+Q3hgDWKKCmqQXMu5PEs/CsWBgAxLb5pvkcI/UblH/xVMIi3P+Fi8K/j6O3IrkllAnc7nIPONv8eqFxb2HCgzuLxo/WkCTbickNN7ZIfdFthuA6y8/5YIBwrwx5xK94na16D5zQiXgftLxRy2rM2YVIHcbwRbNeBpc2st4ufIHxs61/kgkklsAnSzdZFeYAH4i5NQh8Oz54nXqqane80UaeyuryKjJdifgL2j+BaQ4CqsN7Jjrg8STLkwDeOK6Z8/kALvZ29ktrhivzDn0RSJ3aR9Wjl9gAhhdPGq7MdwRvVi8TveI8lkrNT1In0lPXgLbpXvM0g8QiBU8L1CHLtkx6lcU3ArwJFLZr61DlSivLc31z187+scrNx36coC/eXFl/mb+E24DbT/URR/YcMrxUgfGPSJUt5HWDoCEBD1dCuLjgj8MXIfSxIjDXdxkIEdR7pNHiL5hr7Jl5DAGz9+K2MgtkLOZd3P2lSsL1486BC6ec4sMHbDydKB6zcGQ5SkxwJ/+aKkH6OxLoQsQXxazgVTtFlYEWCyDd1fAscFnCn3pjruCnNu5An9LV3y9LNy0r8xb165du3Xr42uX//jJldt/uF1sAOy1ahE1YTGIbKXnnMBT66bveSwABAnF7QImVsxJkDtnFJ8q58mjeFLyRKgvLTLHmcvlHfoi8ws3vNcth9mbiflCm8it3E1XnAhSyWmpACZQScTNH9Bn0s6Ap278nlUHYDcVnUVgigtM0FkUVSQovgd0X6Kpjh75YS1fuviO4O92gZw7fgPoXMjdXshFSgReL4kfcjiYypAANnYfrKT6TK59AH9B3Rdg40qrTZNKBW7JKEvZphdwX+o7OzvSac2zwL7dvCRombtis9PPzJzn8p2c7dd8Gr8ZcfF3rNTC5KiuBi75A/pM/twPqFS8BPelXnFxWDJn1/GIMtyXcKqzuc60au37bF4Q92lRunK3PVevM04Zg7novIs+pkxLTQweHdfBtaVA9kX+2D+wlZqVIlAuEAi+JJ9qM+yRwmrr2RbgxCVJBVg2a9ZNR/4ieXcE39rP2Ovv92rPyE0XxyZPDmvg9i+BPpPvXrq+QbNn6lIdiA2FfJOAySV+wGmVp4RSXYGPSpLOugV/+W5GE5e0u/MuB2Zuqlv88VjCQ9+c6+PBju9DuPmjGRXFSxep+xnU0wPi7lLXwLnh3gM9tOQy4MCcSPzncG05qos8hDHPicstHRPi198/H8kVL+Vz3QzsasKtPb0aNuiBTwA3f/SqwqOkeieo+wJSLK4EHNAt/CrxUNxBC1gP+NyS9PyABqSzOa40I3N3hPxxvqbyhUuftbbyP+QWWHjY3+8EGHPnPSnu8kbhgYsh4L7IzR9QfkFfUAwScK4FArmgXnRbt0wAmULxT9lqi/R0JcdV5Ke3I90Opgo13IWpVkHgfDQirCCn79jcjet516d1r203gUtoAnmUwNQETFSh2Me92oCMLrrybqMLKAdPHsXLPiJJc1H5HJe6fitns8cYu+dMrrWxlSMXvxHp5uwJBnMe+so/ROyCiyHqkSgqUVL30BhA3D33MzMObsaNsi9Gr5tp2IyewsuQzuI5W2m2drc6mLIv3G9t5AR23xFmsN8RwX4PfS/DfVFbD/jQiKxx0OKfongku07hqViZFI90LvuBsbqN/NA/ss7gePk8F7r+hbsF/hqnRHRnTbW3NzIGG0PCCNqOKCkvGT/rJ8U2l/gBfaZ4bJw2Dlr80xzuMnuyzNMjSCb6PQ6F9O2sa65NlcQZbAZgTW5w4rrv3mY/GgW6hYN5r72dEziVv9Ntm8Huftbojs8Yw3O0Q3V6bO9t2NmQrvO++gNYD/k7h0Fj1SuuEBTFIwET6+7dYPrsi+zpqs3NxFOji4u+QHBBCF57vluQx0hrXWZ/zbcODPDf78WnhFQKGYzkjvk+DM7qpMt/TTDY7/LOQOwW7HsyQwmQ+PDeT7LWbnhWFKhGf0UEui7D8JUq1DtG5ZX8lBA6q5VzJ4TuAfvrvQGO9qnoPceNsUOJvO/DdChlFrsEaEyk6I2maoK+oFhVPLKB1toLb8Spd1+gwyDR+zSZARt2c6lrXeIKc0D8d5+R2r6V89f4YKlbWEGbwP4b/s/SsbzId8RQf11xEoPuzqAvKAZr6Usvas27b8uAoNzrcSDtOSxRG6AtfDrurhC8O8uNAw4Yf4+2MgwMfBayraDNYPcUkXJ6i4A6zAOaEJO/9C9MVXfQY0LK4pGAlr+ktr23BbjlmKzaDYJhaE2WW7nQbbJaBXmMtoch6/imTYzAxvyDxgGHQR5YPCCfpbd4Af4CZV+A+xL0mBB4GMN3P90T6v7YDjTxXAcO9gHpYQXgG8J2VjvnrTW+1cHx5dDDiU2cwHtxfqkogp/Rz9JbvAB/wCORJ1SArxP0mJButfWPcvvkAdHjaQACSqm9AQdpJOdgP+Nid3zpHuOO0baJ8TcxOMh+aY8+shVqIZQwWYIX4E9zVtwLamqCPvqHogODJi74c+uAbm8TGrDIK15gN0ty+Q+Oc7G7v3x8k8Bxa4nxNzi49UH+uLCCNoPdVHsiJyJoCcAF6lor3rlp8HilBuU95+WG/9w0CLjbNN3Jn9cHyTtJMGwJ4j7Psx+ct8HQPfFjU2hQWEGbwMZP0UcDPLhio3P7Dgfpng7f/OmAM/KOqPvycotHNpT1VdIaLLknYQLUpzQ9j9I0ssafC7GLD9q4n8hms4ODE0vL3Ao6DLYPwEP6IEWgWjLLm5/wGgcwYnkwAiKtoO4LiKTJ/ZQOKOmRHs8a9ngnlF95eh69L0DWdpnry4ml+5y97ET+T19wAj8PDworuMkOJbCbBI6gKI4Q+c2Jl2tgPeTGFFgH+X0xwAKR+6mqrCS2AQGbN/9AKwpS/lDqVR7fCnt3f2kiyxH6cpr9O5F/KP4qGBzYKllJUD+SF8yJzHjNDc0mK85OVKR4RB/+VL3alTQGG9BTEQHmT8YfTHJnpHN5OJgdzGYTE9kvshNL8WnO36ME+5tD4NatsjQkMvCyLDKdnrdXql0U7xym6uVlF48EFLUeam51xSMgn7LHheGbkOTBsMUlb8Ji/4w+Cj2Znv4qmw0/ygozyHD8njyyAmp6GJIdpabE53vRngIVj4J+PRQ4aEvvJ+cPZGbBWniMCSp2Y06w26SwTF9zspYfZrN/XmX0MQF8aAldyv2YiWXFKqAS5zBwO8De9O12sDvlHgnQL0GLR+BwBB23/F16YGxAaDxOH9oMKEEfw+8hO6B4O0h++quvso/y2ezXo6Oj09PffhH63OZvYuKhMq2Bv7Yw4/1Mog1Uavyq/0WLRwHLVvrikYDsjB+Iu8Ge8raC0SQJcaOypJ2yvPL19PQ32XD2y9FRQeDTvE3fIy57j0HipQiJh92QScbYfgnHYinJ9xr4tQF1ZRUDpsovaN0KCAO6n+xFT0DaQbLGm1LA2YAdbqkPp+RfRKf8CnOLa83816MOQt98883DZc5b+PGXKwHXoYDhsQb5y6GJrqLhWKDiUVD3BYg7up/kgA/K9QC58fk4kje7jfX0NTH/PtZZm1a9+01dXllh/K08nrXpe/yY//vl6pMnT6b/rKTP8MuDCKi3QYNfRfEo6OwoQGSHupAEECgaBqLapG0RAIpazMrqCmfs2+js6MwM+xmaGXUU6fT0n3QrUc5YaJYNyHGg4tFLePII3Q/bd7izQDtfC9M3bWOoZhhb5XTNPn4ywzCbf+rI4ej0E309oYz35YIkKehF7m8BrzfoV2OBUaFm0GbBqBsx7Wti+qZ7DDUT1hPG2Sqnb+ZZaHbGFsAVK2ywrwMfAkU5bqDP5HekjRXnRCFA/hRne9DDXTBTrsu+cBh+UwiGzsF+OjvzLM6Ym7VWZjmNozMrK6urJosR0ARCvRioHkQTiUrnDADE0rgLsOQ4aQIiXJIPMDp5LYNWw+RnZzhzq2EhhUwCZ0c1vksBBt++XEQDlmjaMCO/H3XTgn65s/bFOAUAnwPfy+jJI8OdDp/o1PEXX539bvXZ7GxiZdbGzKqxU2CuQiV+Pgie5MUjsI2Dui8GB6VlM8OqGhlK4KWauKAN9aEEcK/U/MWfrj6fmV0NrX779Lv80+crK0/zQVwCQyemV7bOwE+Xv4UE3CzAUAVAoIUbUkOJ/QjgvsCXmWiPtDUI8da9Jg7h+bPod6HZeGjlqekquGDyTUy9ci1HrYfCI6HuS+BXrNBsgSza9KcgJCcegPxhBaL+FrWdhe5JDlSboIh/GwqtPuMOi5HTQgemYTCtOtor+c4xyZ1I46DJ61DKJ4DD0vjf8jhLO6Q59SZfmnBM2lL+HUPNpXnEfDT3aE/XPWf68vFfuNYqR/444vKRNbRpAkmfn7dFyYjPigwH9V4EwgUkUkn14qSa6uubYtGw9kUgLigbdgwRIRxL1/r2d7K+BJNT7Tzb+fw7MQ6D1hLUZ6jDfWBIR55ALNlkD7YppW+eKs2u6UWOfK8VwlbHxo2b7ZcaDXW19ZX/0I8b0b+sqmoNhp2k+rp29PRsadg5lN7Y1WGBb/iuojJ4/vzx87UeQxVlI/p9NPzfaz2IKsrGcyZ8z4JGwlX8qyD8PfNAn1YV6KsKLn7MhVnrYVRRHqLfix//U1WgryZ++EH8ePzDGo+jirIQ/tHJV/91bcdRRXn4+z+cX/5WVaCvIn4s1Gvqqwr0FURR/EKhf67hMKooEz+WyqV/C1yNqWKt4RK/UPIf8nZV/Gvin64iTPh/124clcX/AbZI8Z+nlR2oAAAAAElFTkSuQmCC" vertex="1" parent="LVvw4arzvhDbE_gQbjfP-2">
          <mxGeometry x="290" y="254.91000000000003" width="187" height="47.27" as="geometry" />
        </mxCell>
        <mxCell id="LVvw4arzvhDbE_gQbjfP-18" style="edgeStyle=orthogonalEdgeStyle;rounded=0;orthogonalLoop=1;jettySize=auto;html=1;" edge="1" parent="LVvw4arzvhDbE_gQbjfP-2" source="LVvw4arzvhDbE_gQbjfP-11" target="LVvw4arzvhDbE_gQbjfP-12">
          <mxGeometry relative="1" as="geometry" />
        </mxCell>
        <mxCell id="LVvw4arzvhDbE_gQbjfP-11" value="" style="shape=image;verticalLabelPosition=bottom;verticalAlign=top;imageAspect=0;aspect=fixed;image=data:image/jpeg,/9j/4AAQSkZJRgABAQEASABIAAD/2wBDAAIBAQIBAQICAgICAgICAwUDAwMDAwYEBAMFBwYHBwcGBwcICQsJCAgKCAcHCg0KCgsMDAwMBwkODw0MDgsMDAz/2wBDAQICAgMDAwYDAwYMCAcIDAwMDAwMDAwMDAwMDAwMDAwMDAwMDAwMDAwMDAwMDAwMDAwMDAwMDAwMDAwMDAwMDAz/wAARCACKAIQDASIAAhEBAxEB/8QAHwAAAQUBAQEBAQEAAAAAAAAAAAECAwQFBgcICQoL/8QAtRAAAgEDAwIEAwUFBAQAAAF9AQIDAAQRBRIhMUEGE1FhByJxFDKBkaEII0KxwRVS0fAkM2JyggkKFhcYGRolJicoKSo0NTY3ODk6Q0RFRkdISUpTVFVWV1hZWmNkZWZnaGlqc3R1dnd4eXqDhIWGh4iJipKTlJWWl5iZmqKjpKWmp6ipqrKztLW2t7i5usLDxMXGx8jJytLT1NXW19jZ2uHi4+Tl5ufo6erx8vP09fb3+Pn6/8QAHwEAAwEBAQEBAQEBAQAAAAAAAAECAwQFBgcICQoL/8QAtREAAgECBAQDBAcFBAQAAQJ3AAECAxEEBSExBhJBUQdhcRMiMoEIFEKRobHBCSMzUvAVYnLRChYkNOEl8RcYGRomJygpKjU2Nzg5OkNERUZHSElKU1RVVldYWVpjZGVmZ2hpanN0dXZ3eHl6goOEhYaHiImKkpOUlZaXmJmaoqOkpaanqKmqsrO0tba3uLm6wsPExcbHyMnK0tPU1dbX2Nna4uPk5ebn6Onq8vP09fb3+Pn6/9oADAMBAAIRAxEAPwD9/KKKKACiiigAoorjfjt+0R4F/Zh8AXPin4h+LdB8G+H7QfvL7VrxLaIn+6u45Zj2VQSfSgDsqK/H39qz/g8q/Z/+EWq3Wm/Dfwr4u+KVzblkF8oXSdNdh3V5QZWX38oZr498Z/8AB7l8W769b/hH/gv8O9Ntc/KL/ULy8kx7lDEP0oA/pEor+cLwD/we6/FKxvo/+En+CfgPU7Xd8/8AZmp3dlJj28zzRn8K+2P2Rf8Ag8G/Zt+POrW2l+PtN8UfCLULhggudSjGoaYGPrPD86D3eMAdzQB+stFc98Lvi14X+N/gmx8S+DvEGj+KPD+pJ5lrqOl3aXVtMPZ0JGRnkdR3roaACiiigAooooAKKKKACiiigAoor5Z/4LB/8FL9C/4JYfsW698RL9be+8R3J/svwvpUj7f7S1GRT5YI6+XGAZHI/hQjqRQB5H/wW6/4L2eBv+CTHgpdB0+Gz8Y/GLWrbztM8PCbEOnxtwt1esvKR5ztQYeTBxtGWH8sv7Z/7evxY/4KA/FS48X/ABV8Yal4m1GR2Ntbu/l2OmoST5dvAvyRIOnyjJxySea4v45/HDxV+0n8XPEHjrxtrF3r3ijxNePfahfXDbnmkY9uyqBhVUcKoAAAAr9Sv+Cc3/Bqdr3/AAUH/wCCfvhv4wQfFG28H694ta5m07Sb3SDcWjW0crRRu8qyB1LlGPCHAI60AfkTmivqz9vD/gi3+0N/wTz8f2+jeNPAepalYanObfSta0GF9R07VG7LG6LuWQjny3VX9j1rG8Cf8EdP2qPiXp6XWi/AH4pXVvIu5XfQZ4Aw9vMC0AfNlFfRnxE/4JE/tQfCixkutf8AgL8UrG3iGXkHh+eZVHXkxq1dx/wTx/4IW/tDf8FIfEcieE/CFx4d8N2U5gv/ABH4jSSw0+1dSAyLuXfNIM8rGrYPXbQBwP8AwT5/4Ki/GT/gmf8AE2HxB8MfFV1ZWUkofUdBumM2k6wndZoCcZI6Ou117MK/qs/4I9/8Fofhz/wVx+ED32h7fDvxB0GFP+Ej8K3EwaeyY8efC3HnWzHo4GVPysAcZ/CL/grb/wAGyep/8Etf2H7f4st8TI/G99Z6vbadq9jDo5tLe3jnDKssbmRmYCQKp3AffBr8+P2O/wBrnxt+wz+0T4b+J3w+1STS/Enhu4EqYJ8m8iPElvMvR4pFyrKexyMEAgA/uuorw/8A4J0ft1eFv+Cjn7IvhP4reFG8m31632X9iz7pNJvo8LPbP7o/Q/xKVboa9woAKKKKACiiigAooooAK/lR/wCDtP8AbtuP2nv+CkVx8O9PvJG8K/Bm2Gjxwqx8uXUZQsl3LjOCQfLiz28o+pr+qPXtZh8OaFe6hcttt7GB7iU+iIpY/oDX8IX7R/xQuvjb+0H448Y30z3F14o1691WSRjksZp3k/8AZsUAcXX9kn/Bup4im8R/8EY/gU0+l6hpclloslmEu4DCZ1juZgsyA/ejdcMrdCDmv5Tv+CZ37MEH7Z37ffwn+GN4WXTvF3iK2tb8rnP2RT5txjH/AEyR+e1f29+GPDOn+C/Den6PpNnb6fpelW0dnZ2sCbIraGNQiRqOyqoAA9BQBckiWXbuVW2ncMjOD606iigApscSwrtVVVck4AxyeTTqKAPzd/4OvvEFxov/AARi8cQW+mXmof2pq+lWsskMJkWxQXSyGaQj7qDywu48bnUd6/klr+9n4v8Awo0L47fCzxF4L8T2EOqeHvFGnzaZqFrKoZZoZUKMOe+DkHsQD1FfwzftX/A64/Zm/ac+IHw9uWaSXwX4gvdG3t96RYJ3RWP1UA/jQB+sH/Bmv+3ddfCv9rbxN8CtVvG/4R/4lWT6ppUTsNsGqWqbm257y24cHHUwpX9Llfw7f8EyvjRdfs8/8FCvgv4ytZDDJovjDTnkYHrC86xSg+xjdwfYmv7iQcigAooooAKKKKACiiigDj/2hLaa9+AfjiG3z583h+/SPA53G3kA/Wv4NZo2ilZW4ZSQQfWv79rq2jvbaSGVVkjmUo6kZDAjBFfww/t6/Ai7/Zi/bU+KngC8iaGXwr4nv7FFIxmITMYm+jRlD+NAHt3/AAb7eL7fwR/wWX+AF7dOkcMviP7FuY4Aa4t5oF/8ekWv7NK/ge+GnxB1T4S/EXQfFOiTm11jw3qEGp2Mw/5ZzwyLIh/BlFf2xf8ABM7/AIKC+D/+Cln7JPhn4leFLy3a4vbdIdc0xZAZtF1BVHnW8i9RhslSeGQqw60Ae/0UUUAFFFFABX8Q/wDwVk8dWvxL/wCCmnx41yzZXtb7xxqpiZejBbl0z+O2v6xP+Czf/BTHw3/wTB/Yp8SeLr6+tv8AhMdXtpdN8I6WZB52oag6EI4Xr5cWfMdugCgdWUH+L/VtVuNd1S5vryZ7i6vJWnmlc5aR2JZmPuSSaAOi+BlvLd/G3wdDBnzpdcskjx13GdAP1r+82xRo7KFW+8qKG+uK/ik/4Iy/s9XP7UP/AAVF+CXhGC3knhk8UWuo3u1NwjtbRvtUzH22REc9yK/tgoAKKKKACiiigAooooAK/m2/4PI/+Cd1z8Nf2ifDv7Q2gae3/CP+PoY9G8RSRJ8lrqcCYhkfA486BQMnq0B7mv6Sa8x/bI/ZL8Ifty/s1+K/hb45svtnh7xXZtbyMoHnWco+aK4iJ+7JG4V1PqvoSKAP5Y/+COH7A/7Lf/BTLwtcfCnxZ468cfDX9ojUJp5PD967QTaDrKBdyQpEVDecoBLIZFLgEocjbXm0vjj9pL/g3h/bs8R+F9F8RXPhXxTo0iLdRxgz6P4msm+aGVoX+WaF15BIDIdwBVga5H9uz9h34rf8Ebv21o9A1o3Wn6t4dv49Y8KeJLVWS31aGKUPDdwN6ghQ6ZyjAqexP73+DtY/Y9/4OiP2YPCc3j6+sfD/AMZfD9gltew2uoR6fr+j3BH70Q7wRcWjyZdQVdRn+Fs0AeJ/sE/8HiPij49fEjwt8PfFnwEfxB4v8UX0GlWMnhLVPL+13ErhATBcA7Rzk/vcAAngV+7dtI8tvG0kflSMoLJndsPcZ74r81P+Cdv/AAbR/s7/APBOz9pHQ/iJpnijxZ4x8caK8suiLrV/bLFbM0Txs6wxRoXYI7YJJA646Y/S6gCj4l1G60jw7f3VjYvql5a28ksFmkixtdyKpKxBm+VSxAUE8DPNfgJ+2V/weeeNPC+r654V+HvwOt/CPiDSp5tPup/F2oG6n0+5jYo4NtCEXcrAjBkIyO9f0E1/GL/wX90O18O/8Fk/2grazhS3hbxO0+xRgb5YIpHP4u7H8aAPEP2vP21fid+3d8XLnxv8VPFmpeK9emBSJp2CwWMRORDBEuEijH91QPU5PNeWUV9W/wDBIr/glH43/wCCr37Tdj4R0GG503wjpkkdx4p8RGLMGj2meQCeGnkAKxp3PJ+VWIAP1P8A+DMX/gnhcxXfjL9pTxBYvHA0T+F/CZlTHm5Kte3K+wwkQPr5o7V/QBXH/AL4E+GP2ZPgx4Z8AeDNNi0jwv4TsI9O061T+CNBjLH+J2OWZjyzMSeTXYUAFFFFABRRRQAUUVyPxl+Pfgn9nbwfJ4g8eeLPD/g/RYztN7q9/HaQk/3QXI3N7DJoA66ivkWH/gvZ+xzPqn2Nf2g/h9527bzdSBM9PvlNv45r6M+DPx98D/tFeEl17wH4t8O+MNHY7ftmj38V5Erf3WKE7W9jg0Aecf8ABQX/AIJ0/C//AIKXfAm68B/E7RFvrYFptM1KDEeoaJcYwJ7eXBKt0BU5VxwwIr+Yj/gp7/wbk/H7/gmv4gvvEGh6dffEj4cWshktfEvh+B2ubGPPy/a7dcyQsAcF13R/7Q6V/XUsyPIyKylkxuUHlc9MilZQ4wRkHgj1oA/kz/4NZPGGs67/AMFsPhzHqWo6lf7dM1lNt1O8vl/8S+Y/xE46V/WbXnPhD9kH4V/D74xXvxC0H4c+C9F8cajAba612x0eC3v54yclWlVQxzjnnnvmtC4/aV+HNp4nbRJvH/gmLWkuPsbWD65ardLPnb5Rj37t+eNuM57UAdtX8af/AAcIW0l3/wAFqfj9DFHJJLJ4jjVEVSzOTa2+AB3zX9lF3dxWFrJPPJHDDCpeSR2CqigZJJPAAHOTXhPhvwP+zP8AFT9or/hNtIsvgv4l+KV5AE/ta0On3usyxxjgh1LSHaoHzDkAdcUAfzY/8Eqv+DYb42/t66rpviPx5Y3/AMJfhfIyyyahqlsY9V1OL0tLV8N8w6SShUHUB+lf04fsXfsSfDj9gH4F6b8Pfhj4fg0LQdPG+Vvv3WozEANcXEuMyStjlj06AAAAesUUAFFZXjLx3ofw50N9U8Q6xpWg6bGyo13qN3HawKzHCgu5C5J6DPNVPAXxa8K/FWG5k8L+JvD/AIkjs2VLh9L1GG8WBiMgOY2baSAcA9aAOgooooAKKKKAMH4pfEXS/hB8NPEHizWpvs+j+GdOuNUvZP7kMMbSOR77VNfx9/tQ/tJ/GT/guf8At7W7x2+peJNc8Yam1j4O8LpMfseiWeSY40UnZGFjG+WU8khmJ6Cv6aP+C9XiS48Kf8Ed/wBoK8tWeOY+FZbcMnULLJHE3/jrmvxN/wCDPPwNp/iH/gp14l1a6jia68N+BrmWx3D5o3muIInZffYSPo1AHbeFv+DL34yar4QhudW+Lvw50nWJYwz2EWn3V1DAxH3TL8u7HqFxX6Xf8EGP+CSvjL/glJ+yl8RvDfiLVPDl9458X65NfQ3mls8lmIo7dYrUneqsPm3sVxxu714D/wAFlP8Ag5U8ff8ABM39ujVPhL4c+Gvg3xNp+m6TY6gL7UtRuIZ5HuIy5XbHxgYxW7/wRf8A+DhTx1/wVW+PHjjwH4k+Hvhfwfb6D4RuNdgvdJv55pWkWVIgpEnGPnJyOQQKAPhr/gk1+yN+3D4M/wCC2Wj6x4v0n4paf9g1+e48ea7rEtwdG1TT28wyASufJnWQFfKVM4O0gALx+gX/AAXz/wCC8PxE/wCCSvx18BeFPBngrwd4otfFugzatPNrMlyskLpcGLanlMBjGDzk5r8gf+CJf7SPxI8Wf8Fmfg/puqfELxzqmn3nim+jls7zXrqe3mHk3WFaNnKsMgcEY4rzv/gsh8O/2mvAP7S1rN+09fazf+INXju7jw41/qcN6semi5YBYRCSsSbsfLgHvigD+oz/AIJY/tea1+3n+wR8O/i14i0nTdE1jxnZS3VxZaeXNtCVnkiGwuS2CEB5J5Jr+Wn492sZ/wCC63iJvLXd/wALvBzjn/kLpX2Z/wAG5/7CP7Uv/DUPwP8Ai9Hb+JI/gC5vLgTf8JMBYtbGGeL/AI8vNzgzcbdnXn3r4J/b88Tal4J/4KqfGDW9FZk1nRfiXqF/p7LF5pW4ivTJGdnO7DKDtxz0oA/r+/a7Gf2T/if/ANilqv8A6Ry1/LT/AMGvttHH/wAFm/hCyoqsbLViSB1/4l81aPjT/g4e/bg8ceENW0XVvF00mlaxZzWV6n/CEQx7oJEZJBu8r5flY89utQf8Gxkaxf8ABab4TKv3VtNXA/8ABfNQB/WhRmv5K/8AgnP+0h8RtZ/4Lf8Aw00+9+IHji80+6+Kz281pPrt1JbyxG7mBRo2cqVwMYIxiv0v/wCDyf4peKPhp8IvgQfDXibxB4da913U1uDpeozWZnC20RUOY2G7GTjPTJoA9s/4O4Y1l/4I+aorDcv/AAl2jcH/AK6vXy//AMGT6R2fg/8AaIb5Y411DRix6Kv7m5P+NfNeq/EDXviP/wAGlmtX3iLXNY8QX0fxjSBbnUryS7mWMPEQgeQltoJJxnHJr5s/4Jg/8E1v2lv+CingbxxpnwT1xdF8H6beW48Qi58RSaXaXd15bGFWjjy8rBC2CRtXPvQB/X1Z38Gow+ZbzQ3Eecbo3DLn6ipq/jv/AGb/ANsD48f8EVP27ZrG+1rxBpWpeC9aTTvF/hi51F7rT9Vtg6+bGVZijBozvjlXkfKQe1f2A+FvEdt4w8Mabq1k2+z1S1iu4GP8UciB1P5EUAX6KKKAPD/+Clf7PV1+1d+wF8Xvh3YL5mpeKvC97aWSf37kRl4V/GRUH41/Lh/wQt/b70//AIJjf8FFtF8YeNobyz8LX9rc+F/FIWJmm01JGX96YwNx8meNSygZ27sDNf1/1+Tf/BWH/g1m8F/tw/FTVviV8LfFEPwx8ca9KbnV7KezNzo2rXB+9OUUh4JWPLFMqx5Kg5JALP8AwWq+J37G/wC0t/wT5+LXxC0nXvgf4u+Jl/4UaLQdXiu7ObW5JFx5KQnPnBwCQBjI6V+dn/Bodn/hvL4o56/8Kzus/wDgVBU3/EG5+0smu+Wviv4N/Zd+Ptf2y8D4/vbPs+fwzX6Yf8EVf+DeH/h1p4q8UeNfEHxF/wCEu8aeKNCk0BoLCx+zaZYwu6yFl3kySPuQcnaAM8c8AH4c/wDBCv8A5Ta/BP8A7G+8/wDRVzX2b/wekg/8Nl/Bf/sTLsf+Tpr37/gnt/wawfEP9jL9v7wJ8YNU+LHg3WtJ8H61Pqkun2ul3Mdxcq6SqFDMdoP7wHn0r69/4Lnf8ESNP/4K7fD3wzdaV4kh8H/ETwO0w0nUbmBp7O6t5tpktp1U7gpZVZXXJUg8EGgCP/g2z+JvhvWf+CPfwV0m017R7jVbGxurS5sku0NxBMt1OzRtHncGCkHBHQg9K/BezUP/AMHIcasqsp+PWCGGQf8AiZ9xX6Hf8Ekv+DY344fsQ/8ABQLwP8VvGfjL4dy+H/BtxcXEltpM93LcX/mW8kIAVo0VeXBJJPArs4f+DXnx9F/wVSX4/wD/AAtbwj/YK/EX/hNv7K/sy4+2eT9q8/yN2dm/Hy56Z59qAP1T/a30Gxj/AGVPicy2VorDwnqpBEK5/wCPOX2r+Xf/AINfj/xuZ+EP/Xjq3/pumr+rH4z+BJfil8HvFnhmG4js5vEejXmlxzupZYGngeIOQOoBbOPavyI/4JH/APBsH4+/4J0ft0+Dfi1r/wAVPCPiTTfCtvexNp+n6bcRTzme2eFcM52gAvk/SgD8g/2AfFml+A/+C2nw41jW7+10nStP+LLPdXd1IIobZftsy7nY8KuSMk8Cv03/AODzf4q+F/Gnw/8AgRpWj+JNC1bVLHV9Turi0sr6K4mt4mt4lWR1QkqrEEAnGSDVj/gpX/waN+JvjR+0h4q8efBLxx4V0vR/GF/Lqtz4e8QxzRjT7mZi8whmiV90TOSwVlBXdjJArz74W/8ABlx8QNQ8Ea1deMvjJ4W03xM1tjSbXStPmurQTZGPtM0m1ygGeEXOcc9qAPFdB/5VGNd/7LQv/ocVfW3/AAZifEXw/wCGPg18ctM1LXdH0/UrrxBp9zDaXV7HDPLELVlMioxBZQeCQMA17FY/8G5Xjax/4Irah+y6PiZ4YbxHfeOF8XDXP7OnFkiAofJ2Z35+X73Tmvlfx3/wZcePbD4aaPdeGPjR4Zu/G0ayrqtvfadPb6dIN58v7PKhMq/JjcHUgnJBA4oA+E/+DhD4l6H8cf8Agr/8adU8KXtpq2myXtlpUVzZyLLDcTwWcFvJsZchv3qsMjOSK/rN/Zx0Cfwp+zz4D0u6Drc6b4d0+1lD/eDpbRq2ffINfih/wTk/4NDPEnwu/aG8OeMvjp408J6r4d8K3sepQ+HfD6TS/wBqTxMHiWeaVUCwhwCyqpLYxkA5r94gMCgAooooAKKKKACiiigAooooAKKKKACiiigAooooAKKKKACiiigAooooA//Z" vertex="1" parent="LVvw4arzvhDbE_gQbjfP-2">
          <mxGeometry x="130" y="220" width="112" height="117.09" as="geometry" />
        </mxCell>
        <mxCell id="LVvw4arzvhDbE_gQbjfP-25" value="&lt;font style=&quot;font-size: 14px;&quot;&gt;Compile&lt;/font&gt;" style="text;html=1;align=center;verticalAlign=middle;resizable=0;points=[];autosize=1;strokeColor=none;fillColor=none;" vertex="1" parent="LVvw4arzvhDbE_gQbjfP-2">
          <mxGeometry x="370" y="400" width="70" height="30" as="geometry" />
        </mxCell>
        <mxCell id="LVvw4arzvhDbE_gQbjfP-26" value="&lt;font style=&quot;font-size: 14px;&quot;&gt;Test&lt;/font&gt;" style="text;html=1;align=center;verticalAlign=middle;resizable=0;points=[];autosize=1;strokeColor=none;fillColor=none;" vertex="1" parent="LVvw4arzvhDbE_gQbjfP-2">
          <mxGeometry x="370" y="440" width="50" height="30" as="geometry" />
        </mxCell>
        <mxCell id="LVvw4arzvhDbE_gQbjfP-27" value="&lt;font style=&quot;font-size: 14px;&quot;&gt;Package&lt;/font&gt;" style="text;html=1;align=center;verticalAlign=middle;resizable=0;points=[];autosize=1;strokeColor=none;fillColor=none;" vertex="1" parent="LVvw4arzvhDbE_gQbjfP-2">
          <mxGeometry x="365" y="480" width="80" height="30" as="geometry" />
        </mxCell>
        <mxCell id="LVvw4arzvhDbE_gQbjfP-28" value="&lt;font style=&quot;font-size: 14px;&quot;&gt;Bugs&lt;/font&gt;" style="text;html=1;align=center;verticalAlign=middle;resizable=0;points=[];autosize=1;strokeColor=none;fillColor=none;" vertex="1" parent="LVvw4arzvhDbE_gQbjfP-2">
          <mxGeometry x="650" y="360" width="60" height="30" as="geometry" />
        </mxCell>
        <mxCell id="LVvw4arzvhDbE_gQbjfP-30" value="&lt;font style=&quot;font-size: 14px;&quot;&gt;Code smells&lt;/font&gt;" style="text;html=1;align=center;verticalAlign=middle;resizable=0;points=[];autosize=1;strokeColor=none;fillColor=none;" vertex="1" parent="LVvw4arzvhDbE_gQbjfP-2">
          <mxGeometry x="650" y="440" width="100" height="30" as="geometry" />
        </mxCell>
        <mxCell id="LVvw4arzvhDbE_gQbjfP-32" value="&lt;font style=&quot;font-size: 14px;&quot;&gt;Artifact store&lt;/font&gt;" style="text;html=1;align=center;verticalAlign=middle;resizable=0;points=[];autosize=1;strokeColor=none;fillColor=none;" vertex="1" parent="LVvw4arzvhDbE_gQbjfP-2">
          <mxGeometry x="890" y="360" width="100" height="30" as="geometry" />
        </mxCell>
        <mxCell id="LVvw4arzvhDbE_gQbjfP-35" value="&lt;font style=&quot;font-size: 14px;&quot;&gt;Audit&lt;/font&gt;" style="text;html=1;align=center;verticalAlign=middle;resizable=0;points=[];autosize=1;strokeColor=none;fillColor=none;" vertex="1" parent="LVvw4arzvhDbE_gQbjfP-2">
          <mxGeometry x="890" y="440" width="60" height="30" as="geometry" />
        </mxCell>
        <mxCell id="LVvw4arzvhDbE_gQbjfP-36" value="&lt;font style=&quot;font-size: 14px;&quot;&gt;Security&lt;/font&gt;" style="text;html=1;align=center;verticalAlign=middle;resizable=0;points=[];autosize=1;strokeColor=none;fillColor=none;" vertex="1" parent="LVvw4arzvhDbE_gQbjfP-2">
          <mxGeometry x="890" y="480" width="70" height="30" as="geometry" />
        </mxCell>
        <mxCell id="LVvw4arzvhDbE_gQbjfP-37" value="&lt;font style=&quot;font-size: 14px;&quot;&gt;Integration&lt;/font&gt;" style="text;html=1;align=center;verticalAlign=middle;resizable=0;points=[];autosize=1;strokeColor=none;fillColor=none;" vertex="1" parent="LVvw4arzvhDbE_gQbjfP-2">
          <mxGeometry x="890" y="520" width="90" height="30" as="geometry" />
        </mxCell>
        <mxCell id="LVvw4arzvhDbE_gQbjfP-43" style="edgeStyle=orthogonalEdgeStyle;rounded=0;orthogonalLoop=1;jettySize=auto;html=1;exitX=0.5;exitY=1;exitDx=0;exitDy=0;" edge="1" parent="LVvw4arzvhDbE_gQbjfP-2" source="LVvw4arzvhDbE_gQbjfP-38" target="LVvw4arzvhDbE_gQbjfP-12">
          <mxGeometry relative="1" as="geometry" />
        </mxCell>
        <mxCell id="LVvw4arzvhDbE_gQbjfP-38" value="&lt;font size=&quot;3&quot;&gt;Builds/Unit Test&lt;/font&gt;" style="rounded=1;whiteSpace=wrap;html=1;" vertex="1" parent="LVvw4arzvhDbE_gQbjfP-2">
          <mxGeometry x="301" y="81" width="165" height="60" as="geometry" />
        </mxCell>
        <mxCell id="LVvw4arzvhDbE_gQbjfP-39" value="&lt;font size=&quot;3&quot;&gt;Code Analysis&lt;/font&gt;" style="rounded=1;whiteSpace=wrap;html=1;" vertex="1" parent="LVvw4arzvhDbE_gQbjfP-2">
          <mxGeometry x="570.5" y="81" width="165" height="60" as="geometry" />
        </mxCell>
        <mxCell id="LVvw4arzvhDbE_gQbjfP-40" value="&lt;font size=&quot;3&quot;&gt;Artifacts Store&lt;/font&gt;" style="rounded=1;whiteSpace=wrap;html=1;" vertex="1" parent="LVvw4arzvhDbE_gQbjfP-2">
          <mxGeometry x="806" y="81" width="165" height="60" as="geometry" />
        </mxCell>
        <mxCell id="LVvw4arzvhDbE_gQbjfP-45" style="edgeStyle=orthogonalEdgeStyle;rounded=0;orthogonalLoop=1;jettySize=auto;html=1;exitX=0.25;exitY=1;exitDx=0;exitDy=0;entryX=-0.014;entryY=0.667;entryDx=0;entryDy=0;entryPerimeter=0;" edge="1" parent="LVvw4arzvhDbE_gQbjfP-2" source="LVvw4arzvhDbE_gQbjfP-12" target="LVvw4arzvhDbE_gQbjfP-25">
          <mxGeometry relative="1" as="geometry" />
        </mxCell>
        <mxCell id="LVvw4arzvhDbE_gQbjfP-46" style="edgeStyle=orthogonalEdgeStyle;rounded=0;orthogonalLoop=1;jettySize=auto;html=1;exitX=0.25;exitY=1;exitDx=0;exitDy=0;entryX=-0.02;entryY=0.6;entryDx=0;entryDy=0;entryPerimeter=0;" edge="1" parent="LVvw4arzvhDbE_gQbjfP-2" source="LVvw4arzvhDbE_gQbjfP-12" target="LVvw4arzvhDbE_gQbjfP-26">
          <mxGeometry relative="1" as="geometry" />
        </mxCell>
        <mxCell id="LVvw4arzvhDbE_gQbjfP-47" style="edgeStyle=orthogonalEdgeStyle;rounded=0;orthogonalLoop=1;jettySize=auto;html=1;exitX=0.25;exitY=1;exitDx=0;exitDy=0;entryX=0.013;entryY=0.5;entryDx=0;entryDy=0;entryPerimeter=0;" edge="1" parent="LVvw4arzvhDbE_gQbjfP-2" source="LVvw4arzvhDbE_gQbjfP-12" target="LVvw4arzvhDbE_gQbjfP-27">
          <mxGeometry relative="1" as="geometry" />
        </mxCell>
        <mxCell id="LVvw4arzvhDbE_gQbjfP-63" value="&lt;font style=&quot;font-size: 14px;&quot;&gt;&lt;b&gt;Dev_1&lt;/b&gt;&lt;/font&gt;" style="text;html=1;align=center;verticalAlign=middle;resizable=0;points=[];autosize=1;strokeColor=none;fillColor=none;" vertex="1" parent="LVvw4arzvhDbE_gQbjfP-2">
          <mxGeometry x="27" y="120" width="60" height="30" as="geometry" />
        </mxCell>
        <mxCell id="LVvw4arzvhDbE_gQbjfP-66" value="&lt;font style=&quot;font-size: 18px;&quot;&gt;1&lt;/font&gt;" style="ellipse;whiteSpace=wrap;html=1;aspect=fixed;fillColor=#FFFFFF;strokeColor=#FFFFFF;shadow=0;" vertex="1" parent="LVvw4arzvhDbE_gQbjfP-2">
          <mxGeometry x="110" y="110" width="50" height="50" as="geometry" />
        </mxCell>
        <mxCell id="LVvw4arzvhDbE_gQbjfP-67" value="&lt;font style=&quot;font-size: 18px;&quot;&gt;1&lt;/font&gt;" style="ellipse;whiteSpace=wrap;html=1;aspect=fixed;fillColor=#FFFFFF;strokeColor=#FFFFFF;shadow=0;" vertex="1" parent="LVvw4arzvhDbE_gQbjfP-2">
          <mxGeometry x="110" y="380" width="50" height="50" as="geometry" />
        </mxCell>
        <mxCell id="LVvw4arzvhDbE_gQbjfP-68" value="&lt;font style=&quot;font-size: 18px;&quot;&gt;2&lt;/font&gt;" style="ellipse;whiteSpace=wrap;html=1;aspect=fixed;fillColor=#FFFFFF;strokeColor=#FFFFFF;shadow=0;" vertex="1" parent="LVvw4arzvhDbE_gQbjfP-2">
          <mxGeometry x="270" y="50" width="50" height="50" as="geometry" />
        </mxCell>
        <mxCell id="LVvw4arzvhDbE_gQbjfP-69" value="&lt;font style=&quot;font-size: 18px;&quot;&gt;3&lt;/font&gt;" style="ellipse;whiteSpace=wrap;html=1;aspect=fixed;fillColor=#FFFFFF;strokeColor=#FFFFFF;shadow=0;" vertex="1" parent="LVvw4arzvhDbE_gQbjfP-2">
          <mxGeometry x="550" y="50" width="50" height="50" as="geometry" />
        </mxCell>
        <mxCell id="LVvw4arzvhDbE_gQbjfP-70" value="&lt;font style=&quot;font-size: 18px;&quot;&gt;4&lt;/font&gt;" style="ellipse;whiteSpace=wrap;html=1;aspect=fixed;fillColor=#FFFFFF;strokeColor=#FFFFFF;shadow=0;" vertex="1" parent="LVvw4arzvhDbE_gQbjfP-2">
          <mxGeometry x="790" y="50" width="50" height="50" as="geometry" />
        </mxCell>
        <mxCell id="LVvw4arzvhDbE_gQbjfP-6" value="" style="group" vertex="1" connectable="0" parent="1">
          <mxGeometry x="91" y="122" width="70" height="80.00000000000003" as="geometry" />
        </mxCell>
        <mxCell id="LVvw4arzvhDbE_gQbjfP-3" value="" style="image;aspect=fixed;html=1;points=[];align=center;fontSize=12;image=img/lib/azure2/general/Code.svg;" vertex="1" parent="LVvw4arzvhDbE_gQbjfP-6">
          <mxGeometry x="15.94736842105263" y="48.25506247307197" width="39.06362200201063" height="31.74493752692805" as="geometry" />
        </mxCell>
        <mxCell id="LVvw4arzvhDbE_gQbjfP-4" value="" style="verticalLabelPosition=bottom;html=1;verticalAlign=top;align=center;strokeColor=none;fillColor=#00BEF2;shape=mxgraph.azure.user;" vertex="1" parent="LVvw4arzvhDbE_gQbjfP-6">
          <mxGeometry width="70" height="57.44650294413328" as="geometry" />
        </mxCell>
        <mxCell id="LVvw4arzvhDbE_gQbjfP-8" value="" style="group" vertex="1" connectable="0" parent="1">
          <mxGeometry x="91" y="532" width="70" height="80.00000000000003" as="geometry" />
        </mxCell>
        <mxCell id="LVvw4arzvhDbE_gQbjfP-9" value="" style="image;aspect=fixed;html=1;points=[];align=center;fontSize=12;image=img/lib/azure2/general/Code.svg;" vertex="1" parent="LVvw4arzvhDbE_gQbjfP-8">
          <mxGeometry x="15.94736842105263" y="48.25506247307197" width="39.06362200201063" height="31.74493752692805" as="geometry" />
        </mxCell>
        <mxCell id="LVvw4arzvhDbE_gQbjfP-10" value="" style="verticalLabelPosition=bottom;html=1;verticalAlign=top;align=center;strokeColor=none;fillColor=#00BEF2;shape=mxgraph.azure.user;" vertex="1" parent="LVvw4arzvhDbE_gQbjfP-8">
          <mxGeometry width="70" height="57.44650294413328" as="geometry" />
        </mxCell>
        <mxCell id="LVvw4arzvhDbE_gQbjfP-21" style="edgeStyle=orthogonalEdgeStyle;rounded=0;orthogonalLoop=1;jettySize=auto;html=1;exitX=1;exitY=0.5;exitDx=0;exitDy=0;" edge="1" parent="1" source="LVvw4arzvhDbE_gQbjfP-13" target="LVvw4arzvhDbE_gQbjfP-14">
          <mxGeometry relative="1" as="geometry" />
        </mxCell>
        <mxCell id="LVvw4arzvhDbE_gQbjfP-13" value="" style="shape=image;verticalLabelPosition=bottom;verticalAlign=top;imageAspect=0;aspect=fixed;image=data:image/png,iVBORw0KGgoAAAANSUhEUgAAApoAAADwCAYAAACg/MTqAAAACXBIWXMAAAsTAAALEwEAmpwYAAAgAElEQVR4nOzdd3hc1Z3/8fe902dURr1Ysi1Z7g1jYzAGm2I6poUkbHphN8km2WSz2c0vZTekLSGFFLKBAAkhhGZ6J2DAxsY27r1LlmT13qbfe8/vD9nGRm1ka+QxfF/Pw8NjTblXI43mc8853+/RlFIKIYQQQgghRph+uk9ACCGEEEJ8MEnQFEIIIYQQCSFBUwghhBBCJIQETSGEEEIIkRASNIUQQgghREJI0BRCCCGEEAkhQVMIIYQQQiSEBE0hhBBCCJEQEjSFEEIIIURCSNAUQgghhBAJIUFTCCGEEEIkhARNIYQQQgiREBI0hRBCCCFEQkjQFEIIIYQQCSFBUwghhBBCJIQETSGEEEIIkRASNIUQQgghREJI0BRCCCGEEAkhQVMIIYQQQiSEBE0hhBBCCJEQEjSFEEIIIURCSNAUQgghhBAJIUFTCCGEEEIkhARNIYQQQgiREBI0hRBCCCFEQkjQFEIIIYQQCSFBUwghhBBCJIQETSGEEEIIkRASNIUQQgghREJI0BRCCCGEEAkhQVMIIYQQQiSEBE0hhBBCCJEQEjSFEEIIIURCSNAUQgghhBAJIUFTCCGEEEIkhARNIYQQQgiREBI0hRBCCCFEQkjQFEIIIYQQCSFBUwghhBBCJIQETSGEEEIIkRASNIUQQgghREJI0BRCCCGEEAkhQVMIIYQQQiSEBE0hhBBCCJEQ9tN9AkIIIYQQo8GwFKZSmKZCKbDbNNDAZZNxt0SRoCmEEEKIDwTDUjR1R6luC1PTEeZwZ4TarhidEZOwaREwLAyr974aoABdA7dNw2PXyffaSXXZyPDYKc10U5DuosjvJtPnOJ3f1hlNU0qp030SQgghhBDD1R0x2N8YZGd9D1vqg5R3hIlaChtgKjgacXQ0dA2U6g2X8F7Q1I78QwNMpUDTUEph03q/aCrI9NiZk+dl7pgUphemkJvixKZrp+NbPuNI0BRCCCHEGaOhM8r6qg5eP9jBtuYQlgKXrmHTwa4lJvxZCgylMCyFpmmU+p1cND6dRWV+xvjd2CV0DkiCphBCCCGSkgIsS9ERMlhV3s6TO1sp74zi1MGhazhPU8AzlSJmKUKGYkqmm6VTM7lggp8MjwO7rpGgvHtGkqAphBBCiKRiWoqIYXGoNcyLu1t4q7KLkGHh0DUcukYy5bijI51KwTkFPm6clcPMghRcdh2HLZnO9PSQoCmEEEKIpBAzFZ1hgz2NAZ7b1cqmup7eqnBd50yYnQ6bFkFDMSXDxXXTsrhggp8Upw2P05ZU4Xg0SdAUQgghxGllWIrWQIzdjQFe2t3K5oYAuqZh17QzImD2J2xapDltXD81k4UTMihIcZDq/vA1+5GgKYQQQojTwlLQGTLY0xTgpT2trD3cjU3rnR4/VYreKvP3/q0YLPHo71tYORIBN2YpDKXwOWzcMDWTSydlUpDqxO348PTtlKAphBBCiFFnWor9zUHeONjBK/vaCcZMPPaTD2CW6g2TluptVeSy6TjtGm673hvsNNA0DbuuoWu9BTuWpVCAYSo0ev8dMixipkXUUAQNCw3o7XSkHfn/8CkFMaUY53dx0/RszilOJSfF+aEoGpKgKYQQQohR1RaMsaGmm+d3trCzOYTvJALm0WBpKnDZNPzu3mbrHpcNn9NGjsdOQYqDnBQnWV47bocNt0PHbddx2nU0OFbEE4yaBKMmUcOiJRijK2xyuCtKXU+MYNQkEDFoDxl0Ry2UUuhHpvSHkxMVEDUVXqfO4vHpXD45k4nZHjwf8NFNCZpCCCGEGDW76nt4o7yT5/e0osGwp8lNpTAssOkwNt1FdoqTojQnEzLcFPtdFKS78HvsI9JQPWYqmnui1HVGONQeprIjQksgRn1XlMaeGJZSve2MhvGcR3tyTsh0c/20LM4fl4bf+8HdeUiCphBCCCESLhSzWFHewct7WtnRFMRl03p334mDpcBSCk2DvBQnYzPcFKe7OCvfS2m2h5wUZ4LPvlfUtGjpibG3KcielhDV7WEq28K0hQw0Lf6G8UdHN3N8DpaU+blqSiaFaa4P5FS6BE0hhBBCJFRTd5SX9rbx3O5WAlEz7lFMS/UW1DhsGpOzPUzO9TItx8OUXC95qac3mBmmoqYjzM7GIAdaQ+xqCHCoI4JO/KO0MUvhsussHJfGzbNyKM10f+C2tpSgKYQQQoiEqWgJsWxHC6srO4mZinh6mB8NmHZdY1qul7lFKZxV4KM0y5OUPSm7wgZ7GoNsrQ+wuaaLva1h3HGO2JpKYdc0Zhb4+KezcpmW5/tANXqXoCmEEEKIhNhV38Nj25rZUNvTW70dx2OOrmEszXCzqDSdeUWplGS6cZ1CRfpoCURNDjQH2VQXYOXBdqq7onEvEYhZignZHj5/dh5nF6V+YMKmBE0hhBBCjLjNh7t4ZFszuxqDwNAhUwFRS5HjtXPpBD8LxqdTmunG67Ql/FxHWjBqsrsxyLrqLl7d107EtIacTlf0hs0iv4svzMljQUn6ByJsStAUQgghxIh6t6qLx7c1sbc5hGLokGmp3gbpcwp9LJ2WzZRcL37Pmb2LjgLagzF21Ad4YXcLm+oCcfUJjVmKbJ+Tfzu/gPnj0uIumEpWEjSFEEIIMWLWV3Xx8JYmDrSFUGrwkHl0FNPrsPGRaZlcPjmTvFTnB6ogxrAUVW1hlh9o54U9bXGNbhqWIt3r4PuLizirKHWUzjQxJGgKIYQQYkRsrO7ioc2NHGgNDzmSebTFT3G6i6+dX8jkHM8Hdi9wS0FPxGDj4W4e2tRIZVcUzxDT4oZS+Fx27ry6hJIszyid6ciToCmEEEKIU7a/KcD96xvY2hDApg3dxDxmKebk+/jG4iLyUz5Yo5gDiZmKPY0B/ra5kY21Abz2wb/nsKnI8tr5040TyfSdmU3dJWgKIYQQ4pTUdUZ4YGMDb1Z04oxjp5zumMVHp2byxQWFeJOwXVEiWUpR2xHh71uaWH6wA4feu53lQBSQm+Lg3psn4bIlf+X9+515ZyyEEEKIpBGMmvzjQDtvlHfiiiNktkdMvnpOHv96YRG+D1nIBNA1jaIMN18+r4ArJ2UQtRTWIEN+GlDTGeU3bx0etXMcSRI0hRBCCHFSTEux8lAnD29pwhFHomiLWPzXwkJumZuP/UMwVT4QDcjwOvjXBYVcNzUTBYOGTadN4/VDnby0s3m0TnHESNAUQgghxLApBTsbAjy+pQlg0DY8CgiZiv86v4AbZuWO0hkmP5/LxlcWFHL15Ax0feCwqQEOTeP+Lc1UtoZH9RxPlazRFEIIIcSwKKChM8J979bz5qFOvIP0h7QUxBR8eV4uN8zKPS1NyA3TIhKNEY0ZxEwLw7SwlEJDw6ZrOOw6DrsNt9OB0zH6le9hw+Kud2p5u6ITc4C0qehtezQp28Mvryk9YxrZfzD7CAghhBAiYcIxi3equni9opPUQebMlQIL+MTMLK6Znj2qIVMpCEaitHT0cOBwE5v2HGJfVSMVDe3UtvXQE45it+nkpHqYkO9nXEEW588qY2ZZEXn+FNJSRq+lkNuu85XzCgnHLNZVdx8JwSfSALumcbgzwuNbmvjUvPwzYucgGdEUQgghRNxMS7GzIcBPl1fRFTUHnDJXR/67tCSdW88rJMM7emNb0ZhBVWM7b2zaz+NvbGTzwQZCpgU6pDhsOPUTw3F7xECh0GKK8XlpfPHKc7hh8VmUjsnBPoqV3k3dUe5YWcOuxsCAaxtNpchJcfLtC8dw1pjkb+YuQVMIIcQx+5oCVLQGuWRiNq4hevyJD6fWQIzfr65hZWXXoFPmUUsxp8DHNy8sYky6a9TOLxSOsmZHOf/3zGpe2ngAt9Me19aPR1lKEYqanDt5DN/59BVcMH08HrczgWd8on2NAe5YWUNdV7TftkeK3tHac4pT+c/FRaQleZN7KQYSQggBQMSweHl3M3/bUMcPXtpPVXvodJ+SSDIxU7HhcDdvHRo8ZBpKkZfi5GOzc8lPHb2QFgxHeXXtTv7n/pdZvqWcDK9zWCETetsP+Vx2th1q4Bt/eIYX1+wkEo0l6Iz7mpzn45ZZObjsWr/FQUez58GWEG9XdAxarZ4MJGgKIcQZ4M0Dbby8p5mmniimpUjEXNS6yg521PcQjJrsbw7wnef38fzOJqJmkn+SiVGhgMbuKI9tbcI1yNpAS4HHrvOR6VlMz/OO2o4/0ZjBO1sP8NOHXmfH4Ra8rlMb6bNpGk0tndzx6Fus2l4+QmcZn8unZHJRqZ/YAG90XYO2UIwVFZ3UdUZG9dyGy3bbbbfddrpPQgghxMCUgv9bVcXr+1p5fW8L2+t66ImYOO06uq7htGlog7SWiVdzT5TKthDdYRNTKQxLsbO+m8PtYQrSXaS67egjcBxxZrIsxVPbmlhR2TXgKKGidzTzotJ0rp2WTaZ3dLZNVEpxuLGd79/zAtuqmk45ZB6l6xodwTCtXUHOm1JMeop3RJ43HhOz3OxqCNAciA3wvtPoiZh4nTrT83xJ+96UoCmEEEmuJRDloQ11x9qbNPVE2VLbxeqKduo6I72jmxq47LZTqkIdk+5mRkEqpoKOcIxA1MRSUNMRpqI1iM9lJ8fnxHEGboMnTl1dR4Q7V9eiaQNvmRizFKWZbm6ZnUtZtofRyj6RmMGj/9jAn17ZSJp3ZKfqTUvR2hnA7/NwzrRxI3JRFw+v08aYNCdvlXdiKvq85poGIcPCAiZne8gYpVA/XBI0hRAiyW2s7mRNZUefr8dMRXV7mPXVnRxqC9EeimFailS3HedJhsFUl53ZY1LJTXERMSxagzEMS9EajLG/KYhpKQrT3XgcZ0YPPzFyHtzYwNaGwIDT5kr1hqPrpmZx/vg0nMNcG3kqmjt6+OYfniVkmCO+45CuaXSHotgddi6YUUKazz2izz+Y/DQXXWGDLQ0BnP18Xxoa3RGTDI+dKbnepBzVlKAphBBJzlLg99hx2DSCMYuIYfW5vbknyt7GAAeag9R3RjCVIjvFeVIfurqmUZzhZmKuD4euU98VIWxYBGNm7/N3RclLdZHlS84RFDHyGruj/OLtGuyaNuAoZdRSzC1K5YbpWWSnjF4BkKUUOw7U8Kun3iFthKbM389QoGmKmWNzKSse3Z2NSjM9rD3USU/M7BMkj45q2nWNSdke/J7kq0CXoCmEEEkuw+tgYq6PafkpzB6TSpHfTcS06AobJ1ScWgq6wgaH2kLsawqwu6EHDY2CdPdJFWSkuuxMyPaS4XVQ1xWhK2xgWIrDHWEOtYXI8jkoTB+90R1x+jy9rYn1dT0DjmaaSpHpsXPt1EzOHpM6qiNrlqX4x5rtvLT5IN4EjbRrGkSiBpOKcjlveklCjjEQr9OG26bz5qGufl9/HY3uqMGYdBeTckZvDWm8JGgKIcQZwK5rpLnt5KW6KMvxcu44P7MKU7HpGg1dEYzjEqdSEIia1HVF2Fnfw96mAPmpLrJ9wx9lctp1ijPclGZ5qe0M0xbsbfPSHopR3hIi1WVjbKanzy4m4oOjK2xw+8oaUAw4mmkomFeUyvXTs0g9yVHFzp4guw7W0B0I4/O4cdjjC42mZfHU8g2sLW/AG+djhkvXNEIRg8lj87hoThm6Ht+yAMM02XuojpqmdlxOBx7XyY305qQ42VbTQ0vI6NMgX9OgJ2rh99iZkuPFk2RbUybfGKsQQiSh+q4o//t6OTUd4WNfc9l18lKd5KY6yU91kZPi7P13iovcVCe+BPzB17Te47rsOpleB2eNSePLC4t5YWcTL+9upiXwXr8/dWSEc2N1J/uaAlw9NYdrZ+QMe3rRadOZUZDCdy4t5a63K9la1406UiT0tw116JrGBaUZI/2tiiSxsbqL9pAxYN9MUymyvXbmjvGd1MUMwP7qRn5w30vsq23F7rDxkQtn8pXrzicjzTfkY5VSHG7uPKnjDodlKbpCEYLhKGm+obenjBkmv/zbqzz5zh4sDWaOyeF7n72MqaWFwz52qtvGzbOyue3NwzidfdO+TYPdjUEOtoSYn2RLWiRoCiFEHDQUlur976hQzKSyLURlW/+NzdPcdsZnehib4WZcpodJOT7SjhTqOO0aDl0/5apcTesNgh+Znc8lk7J4bW8rq8rbaOqJnrCWszts8PiWejZUd/KxOfnMLEglxTW8IJzlc/SGzdXVbKjuJGpYNPdEuX9dDaGYyaIJmbhGsQBEjI5lO1oGXetrKijN8jC/OG3AavTBBEIR3tq0j1c27Md5ZN/0e559B8sw+epNFw4ZNi2lOFDfhtUToS1qDP8E4mSFDQIt3fQEw3EFzf+++xn+/OY2LMMEoK29m6LXN3H7l4YfNG2axpwxqUzKcFHbE8X+vj8cNl2jujPC/tYws8ekJNX7UIKmEEIkSFfYYHtdN9vruo99bUy6i9JsL5NyfIzL8JDlc+D3OIYd+vqT4XHw8Tn5LJqQwYqDbWyo7qS6PUTsuIbrFa1B7lxRyUUTMrlsShbjMjzD+lDyOG1866LxPLShjjcPtNIVNmgPxvj7xjqUgovKMke12lgk1uH2MBUdERwDJEhLQbrLxsxc70kXABmmSWtngJhl4bP1xpJwLMYfX1iL3WHjy9ctxJ868NpDp8PO3/7ns0RjJgldw2EpMtN85GamDXnX2+55lrtf24JT51g7sKhpUt/WddKHT/PYWDoti9+sqSPV8b7p8yP/L28J0tQdpTgjedZOS9AUQog4jNTeOLWdEWo7I6wqbyfFaWNcpoeybC/jszwUpLnIT3PhdztOaaSzIM3FP51dwLnj0llxsI0tNV3UdISPFQ5FDYvX9rWwta6Lq6bmcM7YdIrS3XEf065rfHJeAekeO6/uaaaxO0pHyODhTXUAXDopa9R2gxGJteJAO0qpAXtHmkpRkObivHEnN5oJkOJxM3NiEcdXtumahmmY/PqxFdjQ+NL1C0lL6X8UUdc0pozLP7mDD5emDZllb7v7GX710ga8Nu1YUZRhWqT7PFw1t+ykD+206cwtTsXvshExrT6jmk5d40BLiNqu5AqaUgwkhBBxiJmKhq4IaW4H+Wku8tKcZHgcx0YrDGv4YTRqKpp7ouxrCrC1tpuDLUHKW0LUdobRgFS3/ZR6AmZ4Hcws7K1Sd9l12kMxQrH3ptMDUZPdDT00dEdxO2zkDKMdkk3XGJ/pIcVpp7YzTHfEJGxYHGgO4HHaKM1Kzp5+Ynh+/04dHWGzTwEK9P6+K+CsghSumZp10hdHuq6Rn5lGmtfJPzYewHWkclzTQNM13txWgT/FzfSSfFyO/sfHNE0bnf+G+F5uu6c3ZPps+rHff9NSOGx2/t/NF/CZay9AP4X3tK5BVzDG3pZwv+/VtrDBxGwvE7M9I95P9GRJ0BRCiDg4bDrjszycNSaNs4vTmFucztlF6cwtTuPccX7OK/EzoyCVCdleivxu/B47GhA2rBNaEA3EtBTtwRhV7SH2NwXY1xSgoiUIQGG666R3I9E1jbxUF5NyfBSlu+mOmLQGYsfOyVLQ0BWlvCWAond3oHin0h02ncJ0Fz6nner2MD3R3rBZ3hrCbdeZkO0dtV1UxMirbA3xxK4WNPqfkVZKkeNzcP2UTMZnDb1mcTBup4OZJQV4nDaWbz74XtgEHDaNl9bvI8/vY/r4fJwDhM3TSSnFj+99nl+/uB6f7b2115alsGs6f/z6Uj5z3YWnFDKhdzbB0jRe2d+Ou59WRwrwO21MzvGS6k6O1yk5zkIIIZKcXdfIT3UNeh/DUsRMhWFaRC1FxLAIRU3quyIcagtR3R6iui1EQ3d00OcJGxaVbSFqOsJsqe3mhZ1NXDopi/NLM3CfxPpHTYN0j51zx/spy/GxfH8LL+xsOja6aSlFbWeEJ7Y2UN0e5pNzC+Nuxu5x2Fg0IQNLKR7dVE97KEZ7MMYz2xtx2XUunZQ17PMVyWFXfc+gw/SWOjpqnjIix0tL8fCVGy7AMC1+8+QqHPb3RhDTPQ7+476X0DWNxWeVYU9QG6OT4XK5+MszK/jDKxvw2N5raG8p8LjdPP6DWzhv1sQROZZN1yhKdzIpw0XjcR0mjt2uwb7mIM2BGIXpg/+9Gi2aUmqklh4JIYToh6V6Rzws1RvqOkIGqyvaWFXRTnV7GHOIIU8NsNk0srwOrpuRy+IJmac0WmFaiorWEL9dUUlNZ/iE23RNo8jv4nuXTaAgLf4PKlMpXt3TwoPra4kYFhowLtPDrecVMbMw9aTPVZw+33+5gk31Afq7tDn6G3tpmZ9vLy4e0eO2dfbwmydWcu+L60CpE6bkO4JRjJjZ27srmTjtZHgc2DQNSykcNh13mo9XfvRZJo0rGNFDdYYMHtncyBO7Wvsd1eyOWfxwyTguneAftb3mByNBUwghTqPD7WHWVXewqryd1kCUqKGImdag6z0L0lxcPjmbhaUZZHodOAbYrWUoMVNx39rDrCxvIxI78Zg+p43vLCllen7KsNZ6PbWtgUc21R9rIH92URqfP3cMxX5PUnzoifjETMWnl+2jIxDrt8ind1tUG1+Zn8/iiZkjfvy2zh5+vWwFD7y6AdMwzqglGN2GxZWzSrjv/32CzDj6gA5XzFSsKO/gZ29V47HrfZY1BA2Lz8/N4yMzc0akm8WpkjWaQghxGqV77EzPT+GqqTnMKkwjzW0jZimU6i0W6m8ooCdisq2um7WV7ZgK/B4HXqdt2MU3Nl1j9phUso9sMRmMmsfWbsZMxcbqTlJdNvLTXHG3LJqa56M1GKOqLdS7/rM7QtRQTMju3bHkzIkLH24VLSFeP9hO1FD9XiCYKNK9Dm6akY3fM/INwj1uJ7NK8zlY08quysZjRXfJzrAU80vyeOGXX8HrTsx+7zZdI2JYrK/qJmRYfd73SkGW28aMfB8pCdr7fTgkaAohRJLI8jmYUZjKOcXpFKS58DhsgEYgYvRbUBSMWWyv66aiNYjDppHqtuMd5m5ENl1jbKaHsRkeOkIx2oKxY1P5UVOxrzl4rEjIE8c+0pqmMTU/hdqOMHWdYZSCwx1h7DadSTneMyYwfNhtrOpiY20PhqX6vTiw6B1Z/9js3IR1F3DYbby1+SDby+twnCG9WdsiBktnl3DFwpkJHYUNGxYHm4PUdsf6tBIz6S3AmTc2jUzv6d8l6PRHXSGEEMdo9BZYLC7LZP44P4dag+xu7GFPY4Cd9d2Ej2tPdNSexgCH28PMH+dnUVkGU/NShlU0ZNc1Zhamkua288qeZlYebDtWKNQVNnh5dzMx0+La6blxfXD5nDZuObuAQMRke303MVPx6p5mxmV4uHCCbFV5JqhoD5+ws9TxFL2/MyXprqRpofNhk+ayMzHHy/q6QJ/bbJpGc9AgEDVRJLaHfTwkaAohRJLyOHSm5acwJS+F+q4wO+t7ePtgG3ubAsfWQB7VEzV5u7yNA80BFpT4uWxyNjkpzrg/ZDRgfKaHj51VQG6Kk2VbGggb74XN1/e1omsaN8zMHXI6TgOK/W5umJVLZ8Sgqi1Ed8Tk0c31TMr1kZeamClFMTIspajtjmKpAUKK6v3dnJ57ai2NxMnzOG3kpjp7/w68b422TesdWW0PGViWOu2bJ5wZY9FCCPEhpmu9U9eXTMziXy8cx6fmjSGnn+3+DEtxuCPMizubufOtQ+w8buvLeGX5HFw9LYd/Wzz+hGn4rrDBK3uaeX5nc5+Q2x+brjGzIJUlk7JIPRJMazvD3LumGsOUGtRkFo5ZNAVjAxZ2K8Bh1xmXRLvPDEfEtAjGTIJRs/f/hjliO3+NFoeuke6x47Rp/f6cTAtaAzGiSfBek6AphBBnCIdNY0y6i6UzcvjRVRNZMimr36nLYMxkb1OA/329gie2NsTVMP54HoeNBePT+fbFJSeEzZ6IydPbG3h2R2Ncz+O061wyMZNzxqYf21lmS203z+9qGt4JiVHVFTYIxxRqgPil6N3NJ/cMG5mOWhaGpZhanM0186fw0cWzWLpgKlOLsgnHzNN9esOiaZDmtJHtsdNfTNY1aAvEiJn9L38YTTJ1LoQQZxi73hs4v75oHJdMyuLeNYep7QwTO270QqnewPnwpjr2NQb4l/OLyU5xxF24oWsaZ41J5RuLxvF/q6vpChtAbzX6QxvqSHPbWTIpa8jnS3HZuWl2Hoc7QhxsDmJaihd3NTE9P4XJuSPf+kWcus6QgaUUA224qGvgc+ikJMnOM/Fy2+1cdd40blk8i7KibDxuF5FIjPKaJp5bu4e/vLweXwIq6BPF69DJ9tppDRl91jjYNI2OUOyEvwmni4xoCiHEGWx6fgq/vH4Kn5xXSLHfjfN9Vd1KwcaaTm5fXsGmw10n7HU+FJuucXZxGp+bP4Zs34nrPf+8toZV5e1E4xgx6V2vmYf/SCFRR9Dgme2NdEeMuM9FjJ6OI2v7BpPtsZ90/9bTIWJYXDR7Av/xscUsmT+NkjG55GelM64wm0vmT+N7n1rC9edOpvsMGtn0OHSyvI4Bp/27ImZcy1wSTYKmEEKc4Zw2jetn5PKti0tYXJZJhtdxQihUCipag/xpzWFe2dNMezAW95o0p01nYWkGH5mdR+Zx21KGDYu/bahlfVVnXNNzF5RksKi0t+LcVIq9jQHeqehIig9CcaLuiDHgz+XoV1OdtmPLIc4EuWkerjhnMhOLcvvtC5qXlc6/33IxoXDfbR2TldOukzpAQ3Zdg86wKSOaQgghRoauaZRmefjUvEJumVPAhGxvn2nt5p4oT25t4PEt9TR2R+J+brdd56KyTJZOzyXtuOnS1kCMJ7c2sLO+ByuOTeaum5FLsb+3gKQ9FOPt8jaq20Nxn4cYHcGoNei2qDZdIz0JdpyJV8S0KCnIZOrYHByD7JFeNjaPfrdBSlIOXRuwt62m9XaiGGp729EgQVMIIT5A/B47l07K4tYFRSwYn97n9kDU5I39rfxlXQ2HO8L9PEP/vE4bl03J5trpOTiOfJhs1KAAACAASURBVBgroLojzLM7mqhqG/q5slOcfGJuwbF2KwdbgrxT0UFP5MyZrvwwMKz+d6Q6SimVFFsbxstQCrfLgdc1ePGS3aafUUHTpmvYbVq/YdKmaRimGnYhYCKcWSt5hRAfKKtXreaBPz9AV1dXn9sWnL+Az3/x82RkSIPv4XLYNKbmpZDtc1Lkd/PUtsYTpkKjpmJDdSctPVG+tmgcpVneuJ43xWnjmmm5RA3Fk9saADAtxa6Gbl7a3cQn5xaSMURD93nF6Zxf4mdVeTsRw2JleRtzilKZXpB62htLi14KhlxacQblsQ8sh03D47TR38IVSym6YxZGHDMNiSZBUwhx2rQ0t7Bh/Qba2tr63JaVlUUsduasl0pGOSlObpqdT36am/vWVhOMvveRZCkobw3xmxWVfH3ReCblxBk2XTY+Oiefuq4waw51AL2V6CsPtjMm3c2103MHLRJx2nVunJnH9rpuOkMGLT1R1lR2UJLlxTfM7TOF+DCz6RquAXYAU5AU0+YgU+dCCPGB5rbrLJ6QwdcuHI/f03dsobo9zB9WVbG/KRB3gZDbrvOVhWMZn/lew+6oafH3jXUcbOm7Jd77Faa7uWJKNtD7gfjm/laae6JxHl2cbpaCiJEcIUYkPwmaQgjxAWfTNc4dl86tC4op8rv7FAlVtYV4YH0texsDcY+CpLrsfHnhWPLTXMe+ZliKu1ZW0TlE5a7HoTN/bDpjj+wsE4pZvLirGTMJpvlEbzAYrKDcrmuoUfhZ6TYbmi4xZSCWYsCqcrumkea0vX93ytNCps6FEOJDwK5rLCzx47JpPLW9kQNHmqcftaehh8c21/FPZxcyMcc75P7ImgYTsr3cPDufv22oPdbQvbYrwt821HHrecV4HAOHhDF+NwvGZ1Df1UjMtFhV3sY107IpiXO9qEgc3xCtiyylCA6jH+tgYobJvqp6dpfX9rnNMEwO1Db22cs7mWW7HZQ3tvPcW5uJGn37xDrsNsqK85g5sfiUj2VaasDWYoZS2HUt7g0aEkmCphBCfEjomsb8cX5SXHae2t7IxurOY7cpYGttN5pWz+fnj2FspmfI4hynTeecsWkcaguyfF8rEaP3Q2/lwTYm5fi4bHL2gEUjXoeNs4vS2HS4k0NtIfLSXDR0RyVoJgG3Q8c2wDWCRu/vUecIdAqIGSYvrdrGjf/vAbT0/vdNT3XYB2zhk6zWlzfw4s8f6/9GSzHO7+MHn17CF6+/8JSOEzMtglFzwPepx6ElRUaXoCmEEB8y0/JTSHHZsSzF5poTK/631nbxyCadr1xQjD+O7fj8HgdLJmVxqDXEnsYelALDVLy8u5kJ2V7KsgcOjiVZHq6alkNnKMakHB9lObIlZTJIc9mxDzKiHTEtOiO9O2yfSo4xTZMD1Y3Y0z1kuB0DPtmpHme0WUqR7RmglZKCrkCU3ZUtp3wc0+od1ezvZ2VakJEkuzfJ4gchhPgQGpvh5p8XFDMtL+WErysFGw53ct/aGqJGfNOj4zI8XDklm4wjwVQBtZ1hXt/bQniQKVaXXWdhSQZLZ+QyszB10Kl2MXp8LhsWGmqA8jC7phEyrLi2Hx2M0+ngsvNnUZKTgdfjxuvx9PnP4/Wg6fqgfT2TiakUMV3H5/X2+/143W7Om1LM9RdOPeVjhQ2TtuDA66FTXbZBLxhGi4xoCiHEh1RhuosvLSzmdyurqGgNHvu6aSnWVXaQ4XFw64KiIZ/HpmssGO9nV0MPb+xvxbAUMVOxpbabs2q7WDDeP+BjJVwmn1S3DfsgI2Gmgq6oSTRm4Rpojj0OuqYxu6yQ9ff8G9X1rf3eJxYzuO3hN1m1vQL3AK18kkl7OMa/XXE2/3LjIqKxvms0dV0n259CfvbA74l4hWIW7UGj39FehSLNbe9tQn+aSdAUQogPsXGZHr543hh+s7KKluNaDBmWYvn+Vsb4XVw1NWfI53HadT4+J593qzroCPV+wDZ2R3inop1JOV6yfIPvyiKSR4bXgceuow0wYa3ROzXbETJIdZ9ajNA0DX+qD3/qwMsmJo3dybo9VViWSv5G8abimgtmMqWkMOGHCkQtmoOxfgt+DAsyfQ6cMnUuhBDidNKAqXkpfGpuIZnv29UnFDN5bkcTW2u749rKLsvn5JY5BSd88G063MmWmu649kIXycFl18n22AcMdRpgWRZ1nZFROZ/FU4vJ9adgWCNT6Z4oUcuiKDOFWZPGJvxYSkFnxKQ+YPRb8KNpve9HRxKMaJ7+MxBCCHFa2XSNBSV+rpmeQ+r79rBu6I7w9LYGajpCcT3X5VOymZb/3uhUMGaxqqKNhq7RCSViZIxJdaLrWv+rNDWIGBZV7UPvbz8SzppUTGFW+tD7Yp5m3eEYn7lkNmleT8KPFTUt2oKxAS/gUh06md7Bi7pGiwRNIYQQuO06l03KYtGEzBO2tVMK9jQGeG1fK53hvmvO3s+ma3x63hhSjgusuxt62FHXM2BzaZF8SjJcOAYIKRoQNRX7WkYnaBbmZjB9XA4Opy2pR8YzXA6uW3QWjlFox9QTMalpD+PoZ9rcVIrCVCfpLtugjfdHiwRNIYQQAKR7HFw3I5fZhaknfEBFTYt3DrWzpaYrrrBYluPlwtKM4x6veG1fCx0h2bv+TFGa7cFh1was9jYsxeHuKMHoqffTHIrdZuP6BdPI9acmzf7d7xeOmtywcDoTx+aNSpP07ohBeWuo336npgXF6S5SnMnRf1SCphBCiGPy01x8Ym5Bn/WabYEYL+xsoqFr6FEsm65xycQs8lLfKwCqaA3yzqGOET9fkRhFfje2QbZ/1NCIxEwOj9L0+fzppZwzoRB0LelGNUOmRU6al89edS4pHtfQDzhFSkFL0OBgW6TfHZxMFMUZ7hNmFU4nCZpCjKJIJMKhikNs27qNbVu30dbWdrpPSYg+xmd6+dL5xX2m3SpaQ7ywq3nIUU0NKM5ws3hC5rGvWQpe2Nl4yr0XxejwuWyMS3cOOPWq0Tt9u6M+MDrn43HxicvOJjPVl3RBMxyM8olL5zC9tBDbKBTfhA2TytYQgVj/o8mWgrw0J94kGdE8re2NLMuitbWVjvYOAoEATqcTf4af/Px89EGupBKluqqa+vr6E742fvx4cvNy0ZJhoUMS27VzF2vXrqX8QDnl5eVUVVbR3t7e537+DD/jx49nxswZLFq8iEWLF52Wn/Vg9u7dS0dHB16Pl3Hjx5Genn5Kz/X2yrd5e8Xb7Nq5i55AD8pSqCN/KHVdR9M0FixcwKRJk1iyZAlnnX0WLlfir4o/aGKxGDWHa2hqamLqtKmkpaWd7lM6Y2kazB/r5/oZeTy7o/HY1y2leH1fK+eO9zO3aPDX1+OwMXdsOu9WdVLV3ltI1BKI8daBNq6Ykp3Q8xcjY15hCjsbg5iW6tPoSNd6+zjuaQlhWgrbKBSdLJxdxpKZ41m2djeWIilaHQUNk3Mnj+HGxbNJ8yW+CAigK2yytban30IfS0Ge10GOzzEqP5N4jErQVEoRjUSpr69n7Zq1rF+/ni2bt3DwwMEBH+P3+5lQNoGysjJmz5nNeeedR25eLl6PF6fr5PuxWZZFIBCgva2djRs3suLNFWzZsoXKykrUIGs/5p87n9mzZ3P+BeczfcZ0MjIycLvdJx1At23dRl1t3YA7L0Bvf7GCggLOmnPWCV9XShEKhejq7GLr1q28u+5ddu3cxeHDh6mrrcPpdJKZlUl+fj7zz53PtUuvZXzJeHw+H3b7qf3ILcsiFArR0tzCunXrWPHWCl579TUikfgqSoPBIHW1dax5Zw333nMvKSkpXHPtNXzy059k8pTJeL3euF9TpRQHDx7kwP4DQ963tLSUsollJ3z/SinC4TB79uxh2aPLWLVqFdVV1cdCoNvt5jvf/Q7//KV/jut8oDfstLa0suKtFTz26GPs2L4jrtfmjdff4I3X3+Du/7ub0tJSbrr5Jm646Qby8vLweE7+j1csFiMajfZ7m91uH5FAaxgG0Wj02Ot2PJvNhsvlGtELNcMwCAQCHDxwkGeffpZtW7exd+9egsFgn/uec845nD33bJZev5TSCaX4fD5stsRc5R/9OxeOhAkGglRVVXH48GEOVx8mEAjgS/ExdepU3G43M2fOxOly4na7cTgcSXkhq2nwkdl57Krv5kDLe6+tpRR/XFXFHz86/YSiof6M9buZU5RKdUfo2Fq/Z7Y1cMnEzKRouyIGN6swBW1rMwOVe1sKGrqjHG4PMz4r8SHL43LytZsX8dquKro6e0iGjSmjpsXNl5xNWVEO+igEOwW0hQw2NQT733pSKablesjzDb197GhJeNCMRCLs27uP5a8v54llT3C4+nBcj+vo6GDTxk1s2riJxx97HLvDzrRp07h26bVcd/11FBUPvVvF8UzTpLq6mj279/DUE0+xZs0auru64378+nfXs/7d9dx3730UFBZwzbXXcPkVlzN12lQyMjKGfoL3efCBB3nyiSexBukLpus6l1x6CX996K/HvtbZ0cnBgwd56omnWP76curq6vo8LhQKUVtTS21NLZs2buL+e+/nrDln8fFbPs68+fMoKSk5qQ/bpqYm9u3dx3PPPMdbb75FY2Pj0A8aQk9PD48/9jgvvvAi1y69ls994XNMmjwprgBkmiavvPQKv/j5L4a87xf/+Yv8+3/8O36//9hjDxw4wLLHlvHE40/0O/o6HKZpUl9Xz+pVq3nwrw+yY/uOk36uiooKfvWLX/Hn+//Mx2/5OB+75WOMHTsWt9s9rOdRSrFu7TqeffrZfm+fNXsWn/38Z0/6PI/atnUbLz7/Il1dXX1umzptKjfedCNZ2VmnfBzTNGlsbGTtmrX8/W9/Z+uWrcRigxeXbNiwgQ0bNvDAAw8wf/58PvmpTzL/vPnk5OSM2Ei6ZVm0tbZRUVHBO6veYeXKlezauYtQaOB2QB6vh7nz5nLZZZdxzvxzmFA2AZ8v+fb5TnHZuOXsAn6/qorO0HsV5y2BGI9urufT8woHHTXxOm1My09hbWUHjd29FzyNPTHWV3exsOTUd0YRiTUu002Wx05ddwT7ABdDLYEY2+p6RiVoAkwtKeSmuWXc/+Y2dE5/1Exx2Hl9wx4umzeJKePyE37RGIlZ7G0IEIqZePu50DMsRVmOl+yUD0nQbGho4OWXXubhhx5m3959p/RcRsxg+7btbN+2HaUUX/36V+N+bF1dHevXrefvD/2ddWvXndJ5ANTX1XP/vffz7NPPsvT6pVx9zdXMO2ceDkf8P1iPxzPkL6RlWbS1tWGavesw9u/bz7PPPMuyx5fR3NQc97FisRgb1m9gw/oNzDl7Dl/7t69xySWX4HAO7xfxj3/4I8seX0ZXZ99AcaoCgQBPPvEkBw8c5Iv//EWWXL4Er9c76GM0TcMTZ7+ycDiMYbz3Qbnq7VX88Q9/ZO2atf2OxA1HT08Pq1etZtljy1i5YmXco7tDaW9r554/3sPbK9/mU5/+FFddcxU5OUPv0HK8/fv38/hjj/d7W09Pz4gEzcrKSp577jmaGpv63Hbpkku57PLLTjloGobB6lWreeThR3jrjbcGDXH9iUairF61ms2bN3PllVfyqc98ivnnzj+lcwLo7u5my+YtvPTiS7z2j9doaW6J6/cpFAyx+u3VrH57NZMmT+LapddyxZVXMH3G9FM+p5GkaxqT83xcXJbFS7ubTlibuXxfCwvG+5mcO3hAnpjjY0K2l6aeKEr1XgC9sb+F+WPTZFQzybnsOgvHpvDErv7/pukadIRNtjQEuWyyOSprAt/dUc7KXdXYUAPuXDSa7LrG27urufVXy7j7329mRklhQkc2uyMmbx7swN3Pe8dSkOWxM9bvwm1PjvWZkMCguWvnLu65+x5effnVYX8oDGXeOfPiup9pmmzZvIVHH3mUf7zyDzo6RrbisaWlhQf+/ACr3l7FJz75CW78yI1xB4F4R6fC4TDt7e3s37f/WDA6lSCzZfMWfvKjn9DT08PS65bidMa/DKG2pjYhIfMo0zTZtGkTrW2tuFwully+ZMiR13inlY8Pmm8sf4Of/vinQ065x3NlWltTy9NPPc0jf3+Ew4fjG60frt27dnPHz++goqKCT376k0ycODEhx0lmzz/3PH/4/R/Yv2//KT1PMBDk6aeepqKigq9+/atcdfVVJ/U8SikaGxp55OFHeP7Z5zl06NCxC8Lh2r9vP3fuu5N3Vr/Dv3z5X7j4kouH9b5MtFSXnYUlfvY09rCv6b3Cj2DU4qVdTYzNGItnkL6BGV4HMwpS2VnfQ1fYQAFVbWEq28JMzBn8YlKcfuePT+fxXYMVLSpqO8LsaQgwd2xi10W/+PZWfvL3NznU2D7gCOtoCBomuqYdC3tOXeNgTTMf+eHfeOA/P8qCmaWDVuyfLEspqjvC7GwJ4elnOyBTKabneRnndydF/8yjEnI5+e66d/npj3/Ks08/O+IhMyMjg5mzZg55v3A4zJtvvMnP//fnPPPUMyMeMo938MBBfnvnb7nzV3dSVVkV12Oc7vg+SKKRKG+veJs7f3Unq1evHpHRsqrKKu763V0sf335sB635PIlp3zseFQequSXd/ySXTt3DXo/TdPiXmMYDoWPjYr/+LYfx7Wuc6iRqdraWu754z386e4/UVNTE9d5QO/aSLfbPazlC50dnTz68KPc9bu7qCiviPtxHwSPPfoYd9x+xymHzONt3bKVn9z2kwGXFQyloryCO26/g/v+dB8HDx7sN2TabDZycnIom1hG2cQyiooGX+7z7rp3+dlPfsajDz864Lra02V8lofzxqXjO27EylSKXQ09bKsdfAmSBswZk0b2cXudB6IGW2oSd9EqRs7kPB8ZLhuxAWoYNDRquqJsqutJ6Hk88spavvuXVylvaO2z5WJLeHT6s4ZjJnabjStnl1CWl0H4SNW3TesdW+3s7uHm2x5i9ZaR+1t1vFDM4sWdLQy0ZjZmKSbkeClIT65i0hEf0Tyw/wB3/e6uEZmS7M/cc+YOOaUai8V4c/mb3P6/t3O4+vAJU6aJ0tXVxZPLniQajfLNb32T4uLiQe/vcsZXIFFXV8fvf/t7KisrR+z7UEpxqOIQDz7wIMXFxXEFd4DFixfjdrsJhxPfN23v3r386Ic/4qlnnxr0fi53nEEzHKajo4Nf3PGLEQlqjY2N3Hv3vTyx7Al6egb/A5uZlckFF1zA3HlzmTp9Kl6PF13XsSwLpRQ7d+xk1+5dvPHaG326HhwvEAjwykuvYFkW3//B9ykoLDjl7yPZbd+2nd/86jfU1tb2e3tWdhZjxoyhtLSUaDRKdXU1tTW1ca25ra6u5rd3/pbc/FzOP//8uM+puamZb3ztG+zZs6ffC7/8/HyWXL6EK6+6ktzc3GNLakzLJBgM8u7ad3nxhRfZtnVbn8ceqjjE/ffdT1ZWFtded23c55RoTpvOgpIMNtZ0sav+vd/39pDB6kPtTM9PIdU98MdJXqqT0mwP1e0hDEsRNiz2NfUQiBj4XKe1+YkYgl3XuGaSn79ta8bRz1S1rkHUUuxrCVHVFmJc5siv1bzv2VXcsWwlbd1BnMdNGbeEY8zIS+c/bpjNdx98k+z0xKwTjZgWnRGDRdPH8pPPXMbcqSWs3bqf7//5VfbVteI6MqKvaxrKMln6/b/y1/+8mZsujW/2NR6K3vWwr1d2keboO0ZoKihKdVLid+Hsb/Pz02hE3+HRaJQnn3iSdWvXJSzcLbxg4ZD3qaqs4te//DWVhyoTEnYHEgqFePrJpyksLOTLX/kyvpSB1y65nPEFpGAwSHl5+Yh/H6Zp9haKPPMs48aPi6sVTFp6GjNnzmTDhg0jei4D2bB+A3+5/y984dYvDHifeF/HcDjM8teXs2P7jlN+LcPhMC889wIP/e2hQUeexo4byxe++AWWXreU1LRUHA4Hdru9zwXGzFkzicVifOtb32LFihXc/Ye7OXCg/xHXUCjEi8+/iN/v53s/+N6QF11nslA4xO0/u71PwZvT6WTB+Qu49Z9vZfac2Tgcjt7RYdX7e90T6GHd2nW89MJLvPrKq4Meo7y8nN/d+TsmlE4gLz9vyHMKBAJ865vfYtu2bf3+Hl1+5eX86Cc/Ijs7G5fL1W/B0YwZM7jhpht49O+P8sBfHjghFCulqDxUyYN/fZCS0pKkWrOZn+ri/PF+qttCdEd6R3JMS7G3McC2um4uKB24KNKma5w9Jo11lR30REyUgvquKAdaQpw1JnW0vgVxkpZMyuS+zc24B5iEceoaB5pDrDzUxWdGMGhGYwZ3PfEWv3x6NZFIDNf7Qubc4ize+MO3cNt1igqy+cSvnsRh18l0jUwhTMxStAWjzBqbwy9vvYqLzp1+LOheet4MMtJT+Nqvn2JvbTPOIxdMmgZet52bf/wIf+7s5vM3XTwi52KYikc3NdJPxjx2rtPzfUzNTb7PhBENmps2bOLN5W8Oa8TLZrPhcDiO/UFWSmFZFqZpYprmCX/MdV1n4cLBg2YkEuG73/ku+/YNv/hI0zRsNhu6rqOUwjTNQavC+xOLxbj7/+5m4sSJXH3t1QO2E7I743/pExWWTdPkndXvsPS6pX1aKPXH4XBw0SUXnRA0NU3D4XDgcDjweDxMmjSJ8aXjGTt27LH7dHd3s3XrVrZt2danKGcwlmXx6COP8pnPfabf11HTtLjbNTU2NvLUk0/R0R7/Eor+RpyVpVj/7nruuP2OAUNmWloaH/34R/nXr/0reXlDhxe73Y7dbsfj8fCxj3+MK6+8knv/dC8PPfgQra2tfe5vGAZ//ctfmTRpEp/+7KeTsjXOSHjj9TdO+Leu65SUlPDNb32Ta6+7dsDiu9S0VG686UZuvOlG/vHqP/juf32XlpaWft/LSim2btnKIw8/wjf+/RuDVqIbhsEdt9/BqrdX9XlPOp1Ovv6Nr/OVr35lyPXXTqeTgoICvvaNr5FXkMdvf/3bE0aylVJs3LCRF59/kXHjx5GSkjLo840WTYPFZZmsPNhOd/N7azWbe6JsruliZkEK6Z6BP+DnFKXhddroORJSWwJR9jb2MHtMahKUdIjBFGW4OSffy86WEM4BCl0CMYudDQEqW0OnXIGugM6eEHc8spy7nluDXX9vPaQCuiIGN8+dwF/++3N4jwS8W644l4vnT+P2B17i/uXb0HUNn13vbas1nI9QpWiPGrgtOHtiIf/1sQu56sI5/d717Knj+et/f4Jbf/0UuyvrT2g3lJvh5ct/fIXqxna+e+v1OE9x//Pq9jDPH2jH30/BlanA59CZkuMlOyV51ncfNWJB0zAMdu3aRXl5edyPKRxTyLx587jo4osoHFOIzWajo6ODluYWDhw4wP59+6k5XENzczPBYJAJZYOPOpimyS/v+CVr16wd1rnruk5WdhYTJkxg8pTJFBYWEg6H2b9/P/v37ae6uppIOP61keFwmLt+dxfTZ0xnQtmEfu/jsCdH64E9u/ewY/sOpk2fNmQBgt1uZ87Zc3A6nSilyMzKZEzhGC697FIuvvRiysrKBhxhsyyLyspK/nzfn3nhuRdob2+PK0BXV1Wz4q0VLLms//Wh8b6Og/VsHUh/59fc0szPf/bzftcea5pG4ZhCPvPZz3Drv9x60j0q09LT+PZ/fZtp06dxx//eMeB76qc//ikXLrqQktKSkzrOmUTXdc4971x++KMfMmPmjLgfd8WVV1A2sYzv/Md32LRpU7/tkAKBAG++8SYXXXwRc87u/wPFsixee/U1Xn7x5T4XSl6vl89/8fN8/gufH1YLKqfTyc0fvZmG+gbuvedeAoH3wlssFuOVV15h8cWLOfe8c5PmYiLVZefKqdlUtoVO2OFn55Fem3OL0gcsQvA6bcwtSuOVPS0ARAyLmo4wnSEDv0emz5PdJ+bk8s1XDuFw2vq9MHDoGjsbAqyp7qY4w33SzcItS9HQ1snPH3uLv766npTjApqlFFETvrJkNrd96Qa8x9U6aEB+Riq/+ebH+fYnL+Px1zewbOVODjV3gWZhj+NyRtM05ozN5QuXzeHyBTOYODZ/yMdMGlfAk7d9hk/c/ii7DtZgWupYI3m/z8kvn99AT8Tgti9dj+8kt6c0LMV9a+twDzAlrpTirIIU5o5JjovS9xuxd3dTYxNbNm+JexF7fn4+P7v9Z1x2+WUD3icWi7Fn9x5efeVV1r+7npmzZuJ2DfyHfNfOXTz4wIPDOm+n08k588/hln+6hSuvvrJPFfPOHTt57LHHeGrZU3R3x993c8+ePTz6yKN8/7+/3++HhN3Rdwp1ODRNIzcvl/S0dKLRKO0d7XR3dQ97BNY0TVa9vYorrryC3LzcIY85bvw4Fl6wEH+Gn6uuvopFixfFNeKi6zqlpaV89/vfJTs7m/vvvZ/Ozs4hHxeJRgYNmnbH6H5APfzQw2zfvr3f2woLC/neD77H9TdcPyLHuvqaq8nOzuZ/fvA/7Nyxs8/twWCQ39z5G37xq18Mu8fmmWbeOfOGHTKPKikp4X9+/D/85Laf8O66d/t9j+zZvYc176xh6rSp/b6WjQ2NLHt8GU1NJ7ZwstlsLFq8iI//08fxZwy/L6TL5eKzn/ssa95Zw7vr3j3htoMHDrJ61WpmzJyRNKOaAOeX+HluRyNVx+1x3dgdZWttN1NyfaQMsubyvPH+Y0EToK4zQn1XGL8neb4/0b/549MpTnXSGjL6HdXUtd5AtPFwF7PzfUwvGH5fWEspKuta+PnDy3l0xbYT1u9alkLXNL553Xy+cculpKX0P2qq6xrFeVl8+1NX8vWPL+FAVQNvrN9NNGbgHOLzwut2sen+/xz2eedmpvHUDz/D1377JM9v2IvD6l3bqmngder85Y1tZKR4+N6tS4f93AAbq7tYVdNDurP/lkZOu860fB9jM5Pzc2DEPqU7Ojqoqoqv4hrgyquuHDRkQu9U7azZh0YqmgAAIABJREFUs5g+Y/qx9ZZuT/8vZCwW474/3TesKnebzcaSy5bwzf/4JlOnTu03+M2Y+f/bu+/AtsqzffzXOUfLkuWh4W1nOYnj2M4iO85gh02TQIAABUIDFMoLpV/asprSlxb664TS8jIKhLB3aUgC2ZMkdkIcJ957D9mybO1zzu8PxSFGknVkS44c7s9fYE07snXpeZ77vnPwxKQnYDQY8Y8X/gFrn/f0EX82btiI2++43Wdh0HCmk6SmpmLZRctwwewLkJiYCKvViuamZpw8eRI7tu0YtKDEl+PfHkePpSdg0AQAo8GIn//i50hLT4PBEPwYuejoaFx19VXYsX0HCgsKA16fd/M4UXQCNpvNZyujUDXd1uv1SM9I/247VvQUb5x9drW8rBwvv/Syz9trojV46JGHQhYy+82ZOwdPrX8Kjzz8iM+OBv/9z3+x/IrlQ27TMxokJyfjid88MaSQCXheIzk5Obj9jttRX1+PhnrvDgF2ux0H9h/A5csv99qF4Hkeu3ftRtHxIq+QmpKSgquvvRpjxowZ0nMDAIPRgDW3rsHhQ4e97n/zps1YecPKiAqaUXIOV2Qn4J/76gZ8/XCtGUszdcgcJGhmJWgQq5LBbPesCrdYHGg0OzA5IToixgmSwd063Yg/7WvyO/tRxjIoarViX10PxuhUiFYG9z7X22fHe9sK8dbWQsRov1v94wURGqUCD1w3H3devRDxMdJCrFIuQ05mGnIygxvwMhSx0VF45f+txiMvfIz39p2Ey+WGnGU8BUIQ8Mn+0iEFzW6rCy/ub/IZMgFPOJ9iVGNuWuSedQ5Z0LTb7ZJWqPoZE6Q3nuY4zu8WdL8TRSdw6JtDku8TAGbOmol77rsHWVlZg64uKpVKrP3JWrS0tGDDGxsk37/FYsHGDRvxy1//0usyjh1a0Myblof7H7gfixYv8irgMZlMWLZsGX71qOdMmlTNzc1oaGjAhAkTAq6yqjVqSec5BzN+wnhMnDgRx789HvC8piiKsFgsaG9rR8aYDK/LhxM05Qo5srOzsXTZUmRnZyMlNcWz0gzGM07Q6URS0ndbJ2+/9bbP6TcAsPbutfjRih8N+bkMZvac2fjpAz/F+ifXD9heBTwFeBve2ID8xfkRFUZC6bYf34YZM3xvaUvFsiwWLlqIiy66CO++867PavGjhUc9vwff+1vT2dGJAwcOoL194JAETsZh5gUzsXjJ4mGPtbzokoug0+m8fm8rKipQWlKKjIyMkH2oCoVF4+PwSVErWnq++zm2WhwobunFmPgoyP1s8ankHKanxWBXhacvY5+TR63JBquTDzqUkJG3dJIObx5rR4+d9/vBgAGwq7Ibkw1RWDgu1ueYRH+6LX2oam4Hzm6jJYjQx2jw8Mp8rL54FmKiI6/YpZ9SIcfzD9+I5PhNePHLw7BaHQADcGCQlhz8BEEXL2JDQSsae11Q+uybCSjlLKalRGO8YWQmMw1FyP5yud1u2G3Si4C+2vpVSHtbbtm8BSbTYE1lB1KpVLjokouQk5sj6Q+4Wq3G6ptWBz36cuNbG33OYB5sxrk/U6dOxaO/ehSXLb/MZ5W4TqfDZcsvw+NPPh7U/fI8j+Ki4iE3nJaqt7cXxSeKUXKqBID0Vd3e3l6/5xSH+gavVquxbt06/OVvf8G9P70XV1x1BWbMnIHc3Fzk5OYgNy8Xsy6YhdS0VACeKT2bN/uuYJ42YxpuvuXmsDXZlslkWLZsGRYvWex1mSiKqKysxIkT3lvr54PxE8Zj1Y2rQnJf8fHxuOTSS5CSkuLzcrPZjKLjRV67IqWlpThy+IjXamNcXBwW5S8a0gja74uJicEFc7xbobjdbhz65lDYfzeDFa2UYWmmbsDXRAB7K01wuAc/vrNwXDw4lsE4XRSuzDZiTkZswJnpJDKo5SxuyjPA6aenJuBZ1WzqdWFbRTcazY6g3umiVEro42PAiyIcvABeFJFmjMPjt16CWy6bE9Eh82y/vuMKPL4qH+OS9YjWKJGdYcSD10tvodavoL4Hn5aafIZMwPP3f7JBjaXjYof7lMMqZCuaLMsGdV6u6HgRbrvlNvzhuT8ge2r2sB7b3G3G0cKjQVW7Z0/NRn5+vuRwwDAMxo0fh2uuuQYv/uNFyY/TZerC/n37vc4Y9vb2BlVNrlKpcPOtN2P+gvmDhiuWZXHNtdfgg/c/wL69+yTff1NTU9DnO31xu91oampCYUEhjhUeQ1tbG0pKStBr6YUgCHC5PcUYVqtV8nlenud9hvX++xmKe+67B/fcd4/k9kAHDx6EqdP3B5lbb71VUnX5cCQmJeL6H12PQ98c8qpE7zJ1YdfOXZg3b15Yn8O5sHz5cuj1w5+T3m/W7FkYN34camtrfb7eS0tKYbVazxzT4HkeNTU1qKut87quTqcL6c88KysLmzd5f5g5cvgIeJ4PasTtSLhksh6fFrXC7vru51jZYUN1pw25Kf5X12emxeDP12UhPkoOhYyFgmOGXDhCRhbLMFiSGY9NZV2o63aA87MDpmQZHKzvwZh4JVbmGhErsdhLFxuNJTMmYde3VbDY7EgzxGLd1QuwfG42VCFqWTRS7ll1IfImpaOoohFZYxKx5IIpQd2+vsuO1460+C1i4kVAq5JhXoYWafGReTazX8iCpipKhbi4ONTXSRvDx/M8CgsKseK6Fbju+utw+523IzMzEyzLBr1FVFFRgfb29qCC27jx45A1JSuox+lfdVC9GlzT8qLjRV5BUxzkE6Ev02dMx+zZsyUFY7lCjksvuzSooNnd1T2kNkr9raiKjhfh7bfext69e32egRsOm9Xm9z6HMkFlxswZePiRh4O6za4dvmeY5+TmYOasmWEvSmJZFjm5OZgzdw6+3PTlgMusVitOHD+B7q7uIRWkRCwGuPDiCyW3sJJCq9ViYf5CHDp0CL0W70b7xSeK0dfXdybcmjpNOFZ4zCuUsiyLcePHhbTif+Gihfjrn//q9fWCIwURt6IJeFY152TEYXfldx/AeFHE7irToEFTzjEYG4am3mRkxKhkWJ1nxHO7GyGIvo9rsoynSGVTiQmpMQosnRAPlb8GkGfhWAYLsjPw53VXorXDjPHpCcgalxKwiCdSLZg2EQumBT8yuKPXhbcKW9FgdnpNQQI8uwcMA0wxRmHp+MhezQRCGDT1ej0mTpyIouNFQd3OYrFgw5sb8MV/vsDsObORvzgf+UvyYTQaERMTI6kyu6KiIqj+iHHxccjNyx1S+5mk5CRMnjIZ3x71nurhT7A/E18mTJiA1NRUSddlGAYzZ80EwzCSw2N3d3BB0+l0orOzEzu278CGNzaE5Hv0h+d52OyhGWXKcZzPM7ODcTqdKCoq8nmedNasWUMqihqKlNQUTM6ajK1btnoFj+7ubjQ1NZ1XQdNoNCJeFx/y1j4TJ02ESqnyGTS/38qs29ztsycvx3EYN24cbNbQjdgdbLxse3s7NJrgq3jDScExWDAuDvuqu8Cf9cH5m5pu3D0/bcAEF3L+kLEMZqTFYFpSFwqb+6Dw8/spYxiY7Tw+OtGJRK0CucnRks5rxkarMX8I4ex8YXXy+PhEB/bWWTyB0sd1RBEwaGS4MksXkX0zvy+kQXP6zOnYsnmLV8GCFF1dXdi6ZSu2btmKhMQEXHHFFbjkskuQNSULRqNx0FXO9rb2oLZQY2JiMGHC4MVFfm+rjUFiQnDbpKdOngLP80M+T8gwDHQ6HbQx0qvKdDodtFqt3+KV75MaNEVRhMlkwu5du/HWm2+hsKDQZ2/CSDVhwgTMmx/cdmdVZRX6er1f0wqFAjl5OYiNG5lPlDKZDOMnjIfBYEBra+uAy7q7utHU2DTsYyiRJD4uPiz9ZnNycnx2MAA8RY1nn9Hs6+1DXZ33trkIEbW1tXj1lVdD9rx8PU6/qsoqjB07NmSPFQoswyA9ToX0OBVqTN/9zMx2N4qaejErPfC0MTL6CKJnWo7rrH6R/ig4BlUmO9491g69Wo70OJXfPqvEU/zzZakJ/y0zged9/3xFEZDLGFw4IQ4XjJLfsZAFTYVCgUX5i7Bz3k7s2rlrWFs9ba1teOP1N/DFf77ARZdchMuXX4658+b6HZPY39BdqihV1JBXoWLjYpGcHNyMabfbjba2tqBv149lWSiUiqCOFMjlchgTjJKDppSG9P0z0je8uQGffvypVxXuuRDsatfc+cE3v+7s7ITD6f3ziY+Ph8FgGHbFcTDS0tJgTDB6Bc3e3l50dErvNPBDlpCQMOhRh4aGBuTm5gKM5wOwr7O5bpcbmzdt9nmm8ockLkqGvBTtgKAJAHsqTRQ0z0MiPBNqXjrUgqJWq98pQWdTcgwKmnrx6uEW3L8gFYZoXxPTCS+K2FbRhY9OdMDu5H2ef+0fcpRtjMJVU/R+uztEmpDubUwYPwE33XJT0JXZvoiiiI6ODnzw3gd4+jdP4+WXXkZLc4vPUVIulyuoQhZOxiFKPbQzQhqNBvG64KpMeZ5Hl6kr8BX9YBgm6HOrLMuGfKuttrYWz/zuGWx4Y0NEhEwg+PGcCYkJQQfN7u5un6u2KpUqbJXm/sTFx/lsY8QLPNwuaaM9iSew+2PpsUCECLfbjeam4HrS/tCoFRwmGTVQf28s3vFmC6zOyDtXSoansduOv+1rwpEGC2RB/B2VMQz21/bg5UPN6KPXhU/7qsz44Hg7OvvcYP38bHlRhE4twy0zEpGgjfwt834hDZqcjMOSpUtw/wP3Q6fTBb6BBIIgoKqqCq+98hqeXv+010pOZ2cnurqCC3EKuQJa7dCamyoUCsmVyucUM7ym8N9ntVqx/sn1+GrrV0EVQoVdkB/oNOrQhe94XbzfVfZwiYqKgkI5ev7ARCopOxqiKAY1AOKHiGUYJMYokBwz8Lx7j51HaVvwR6hI5GoyO/D7nQ041twLJcsG1WCfZQCOYbCn2oy/7WkM2ALrh2ZftRlvH2tDY48TLOPnXCYAkWGwZkYCcoYwdelcCvlpbbVajetXXI+nfvsU1JrQBTKz2YxN/92Eh/9nYLWww+4Y9BC9LyJECDy90IPxp+f+hB3bd0Re9WuQhfJMCDdtent7KYiQHzyDRoH0uIHtVQRRxNFG6SN7SWRrMjuwflsdTrb1BR0y+/XfZk+NGc9sr6MVb3hWKL8u78Krh1tQ0+UAA/9rJ3ZexM25BizLjPO74hmpwtIzQKVSYcXKFZgzZw7uXXcvjh09FpL7dblc2LVzF5753TP49eO/BgDoDfqgV0/dLjf6rEP7tO1yuSJrRW8EFB0vwjvvvBNwio8vmZmZWLx0MRISEjBj5nfTXd59+11s+u+moD8kRBKb1Tbir4X29naYu6VP4CK+9fZ6V5wHg2VZjBk7Juz9U/tlZHhPxYoU8VFypMaqwDEM+NNHWXhBxKkWC0RRDHnXADKyGrsdWL+9DhUdNqg4dlgf1ftve7DOgqe21uLxizIk99g83zjcAr4u78Lbx9rR0efyu5IJAHZewNIxMViRZ0SUfPRN0Arrv3B6Rjre/+h9bHxrIzZu2IimxibY7fZhNwZ/5eVXcMPqG5CZmQmlUhn0OTlRFIf8HMxmM1paWoK6jUwuGzDKcDQRBAFv/PsNyTPeOY6DwWjAlVddiRtX34jJWZN99kHct3ffiBbRDEd6RrrP4xJWmxVWq3VE30x7Lb5XUZUKZdA7CEOZTnW+qKio8HvZ9BnTA56JVigVuOe+e3DLmltC/dRGHYYBUuOU0GnkaO/9rq+txcGj0exAWlxkN5Mm/jV22/GbbXWoMtmh5AbfDxJEwC2KYIFB2xgx8Kxunmztw6NfVuPRxWkYF8HjE8Ohx+7GZ8Wd+Li4A3aX4LNXZj87LyDbEIX7F6UhRjU6Q3nYG52p1WrctfYuvPr6q3jgwQew7MJlmDR50rAKVXg3j3c3vnvm/5VKZVChxWazoa21bUiP7bA7YLEEtyWk1Wqh04fmzOpIq6+rx9GjRyWtZspkMsycNRN/+uuf8MRTT2BqztSQNts+V/Q6vc8PM12mrjOTZEaCKIooKy1DY2Oj12Xxunikp6d7fX2wABzpxUNyhTws873tNv8fdlUq1ZnHZMD4/7siDm1YwPkqUatEvHpgKyq7S/CqRiejR0evC7/dXo9qkx0KdvCQyYsiVDIGl4yPxbSUaDj4wT/EMvCceqrtsuOXW2uxu2LoxbKjTUuPA69804y3v22H3SUM+nO18wLSohX47eXjoNeMrslIZxuRFMCyLCZMmIAHHnwAVqsVJ4tPYt/efSgsLERZSRmampqCOvvH8zwOHDgAm82GqKgoJCcnIzo6GmaztC3Fnp4eVFdVY1H+oqC/l+5uT7/CYGRnj97ehkePHpXcDD8xMREPPvQgli5dGt4nNcJS01KRmpqKstIyr4BSfKIYXaauEWmmbTabUVlR6bOnp8FgwJixY7y+PtjYwpBt+4dpYVStVoMNQ9PvkpISv9/7uHHjoFJ5VuBYjoUxwejzerzAB/134HyWEK1A/Pe2QG1uHnVdNgDDnwVPRlaT2YHfbKtDZadNUsiUswyumaLHzbMScazBgs4+F+rMjoDtjxgA3VYX/rCnEcdbrLhrbtKo3BqWQhCB8nYr/rqnAWUSwnt/yPzztZnQqUdvyARGKGieTa1W44LZF+CC2Regob4BRUVF2LtnLzZ/uRmtLa2B7+A0k8mEuto6TM6ajLS0NGi12qCC5qmTp+CwO6BUSZ8OJAgCGhsbUVVZJfk2AAacTRxtamtqJTXgZ1kWC/MXYuGihSPwrEbevAXzsHfvXq9+o4UFhaipqUFKakpYVt/OVl5ejsOHD3t9XSaTISUlxedZZaXC/+s72JV5fxwOR1iK6/r6+sJSfHbq1CnYbX6C5oRxUEV5gibHcUhMTERUVJTXcQXezaO2pjbkz220ilbKkBCtgJxj4Dq9muV0i2ixOMGLot+Z2CTy9Bf+VHTYJG2Xy06HzDvmJINhgLljY2F18vi/wy3osLoDhk2O8Yxk/vRUJ062WfHgwhRMThxdVdWBONwCtpV14S/7GyEKnt6igzk7ZBpG8Upmv3M6IywtPQ2XL78cDz/yMO776X2SRywCnje3/vnXkyZPCqogyOVyoaKiAnX1/idx+GK1WnHs6LGg2ymN5qDZ2NgoqbKaYRhkZ2cPuoJ2NofDMeyzuiNp6bKlPkNbR0cHNm7Y6HOVMZQsFgt27djl82xhfHw88hfn+zymEK31P3O6y9QVkqp5c485LNvILS0tcDpCf79HC4/6Pe4wZcqUAedx1Ro1UlJTvK4nCAKqq6tRU1MT8uc3GrEMkByrgkr23WqUIIow29zotVN18WggAmjotuOZnfUo67BKCpkcC1w1WYefzE85M/GHAXDhJB3uviAJRo0cbiHwlgcDQMEyKO+04eebqvHm4RZYHDwk3DSi8YKIph4HHt9Uhad31nu+zwAh0ymImBCnwnNXTzgvQiZwjoMm4Akoer0eq29ejfkL5ks+0+d2uWHq8kzsGDN2DDLGZgR1TrPkVAkOHjgYVCV1W2sb/vPZfyRfHwDGjx8/qscC2m12yatKUv/tHA4H6mrrRlXF+cSJE5E3Lc/nZV9t/crnSmOoiKKIivIKfPLxJz7PVcbHx2PRYu9jIAzDICEhwe/92u12r760Q9FY3xiWc6rdXd04fPhwSFc1T508hRNFJ3w24I/WRmNqztQBQTM2NhaTJk3yeV8mkwlFx4tC9txGu0StAir5wLeUPqcbnVY6yxrpBBGoM9nx572NKG71tDAKuJLJMVg+KR73LvS9QHTRZB0eXpiClFglAhzZPEPOMnDxAv5d2IpffFGJ/dXd6HPy4EdZ4nTxIsx2NzYeacEt75SgoKUP8Upu0Cb3IgBeBPIS1Hjq0rFIGkUN2QM550Gzn0ajwdhxY8+cjwqE5dgzW1xyuRzz5s8LqpG6yWTCl5u+RHVVtaTru1wuvPvuu0GvYKy+ZTWUSunb8z8Eh745hIryiqCn+pxLMpkMd6690+dldrsdT/z6CcnjPoPV19eHZ3//LOpqvVfgOY7DwvyF0Ov1Pm8bHx/v9/Vnt9txoujEsJ5bY2Mj6urqhtT6KhBBELDt620+Q+FQHTx4EPV19T4vmzJlCtLT0wcUUOn1er87Ep0dndi5feeo+sAUTolapdf5uj4HD1Nf6P79SOjxoogakw0vHGzC0abAzdj7Q+blE+Nw/6LBpwDOHhOLXy9NQ5YxSvJwDY5hECVjUWWy46mv6/D0V7U42mBBt80d8YHT7hLQanFi86lO/Pi9Urx+rA1RMhaqAGfNBdETNBeN0eKRpelIizu/MkNIg+b+ffvx2K8ew769+9Bj7gnqzUcQBJjNZsm3kcvkMOi/m+5x9dVXD7p648vunbvx7jvvoqNj8BnRbrcbu3buwuuvvh5UONIb9KO+/YlGo5G0UikIAnbs2DHom64oimhsaMSH73+I6mppAT+SXHrZpZiU5Xt1q7a2Fg/e/+Cw+zN+n7XPimd+9wz27tnr87Wn0+nwswd/5vf2KpUK48aP833fNisOHjg45CMMgiDgwP4DOFl8cki3l2Lr5q3YsnlLSO6rrLQMWzdv9Xn0hWVZ5Ofne/2sVCoVJmdNRnJystdt3G43Dh48iO3bto+qYyDhYtAooJQNfEuxuQSY7ZHd3eCHjBdEVHfa8fLhFhyut4Q0ZPabaNRgVa4BGgUXVN2gjGUgZxkcbuzFr7fW4K+761HQYEGrxRlRk4V4wXNEpLbLji+KO/A/n1fiub2N6HXyAQOmCE9LKJmMxbVTdLhnvmcF+HwTsqApCAKqq6rxwXsf4M7b78QjDz2Cjz76CCeKTqC5uRnWPqvPP8aiKMJqteLI4SMoOFIguRJWrVEPmKmuN+ix5rY1QfdmfP211/H3v/4dZWVl6LUMDAlutxvNzc34/LPPcd+6+4LaHmRZFnfedeeIjygMtTFjx0jqzyiKIgoOF2DjWxt9Fpk4HA6cOnkKf/vL3/D5Z5+HZQVsJPz+D79HXFycz8u2fb0NTz72JGqqa4b9/QmCgIaGBvzut7/Dm6+/6fM6HMfhl4/90m9lNACoojxByRenw4mjhUdRX+97hW8woiiivKwcn3/6edB9ZYP17O+fRW3t8Apvenp68Plnn+PI4SM+Lx87bixmzJrhc0clOzsb8xbM81nsVVtTi48+/Ah1dXWjaoU+HKLkLKIVLM7eHbS5eJhto/N3/XzHCyKqOm14vaAFB2p7oOICh0yORVAhUxSBKpMN737bDquDD7rZO8vg9FlRBntqLXhsiydwfl3ehZI2K0x9LklnQENNFAGrk0d9twOH6y3YWNiCX3xRhb8fbEa71QWtnIU8QBFU/9NO1ipw56wErJmZCGP0+bNdfraQVZ339vaiqqrqTBjbtGkTNm3ahOTkZMyaPQuTsyYjKTEJOr1uwFaey+VCWWkZNn+5WfJ5J5ZlkTUly6tv4KobV+E/n/8HhQWFkp+3w+HAa6+8hmPHjmHRokWYNHkS4uPiz5xfO7D/ADZ/uTno7bvs7Gxcc901o34qxqTJk6DVatFjDrwt3N3djX++8E90dnRi5qyZZ+ZJd3d1o6S0BFu+3IKjhUdDuhU60mbMnIE1t63Byy+97LV6KwgCPvn4EzQ0NmDt2rWYO28uYuNig36Mvt4+HDt2DP9+7d/4astXfq83f8F8XHPtNYPel0ajwfQZ0/HZJ5/5vLy+vh5fbf0Kt91+W1CDD9rb2/HWm29h7569g14vFOGrrrYOj/3yMTz2xGOYkj0l6NvbbDZ88Z8v8PFHH/ssfoqKisKSpUswY4bvLfLklGQsW7YMB/Yd8Bmqd+3YhfT0dNxz3z1ISEgY9b/zw2GMVoJles9MCHLwAiwONwRRHHVj885nvCCistOGDYVt2FsTOGTyoggZy+DKyTrc5+dM5veJIlDWYcWL+5tQ0WkHM8jkm0A4BuBOF9EcaerDvvpepGsVmJehxeQkDZKi5UjQyBGjkkGtCE97JF4Q0evg0WV1od3qRlWnDYfrLDjRboWDFyBjGGjkgScnifAUyillLHIS1FiRZ8SM1Ojz+vcjZEGzs6MTZWVlXl9vbm7GF59/gS8+/wIsxyIuNg5RUd+d13C73DCZTEGFD47jcO2113p9PS4uDr967FdYt3YdTCZTUM+/8EghCo8UQqFQICEhAX3WPpi7zUPaEktOTsbd99wdVBV9pJo+YzpS01LR1NgkKTQ0Nzfjhb+/AIPBgNS0VEAE2tra0NDQMALPNvwUCgVuXnMzKisrsXXzVq9CFZfLhYP7D6KpoQkXX3oxLr7kYsyZO0dSiHPYHTh58iR2bNuBzV9uRllZmd9CmJmzZuJXj//K87s0CKVSialTpyIpOQktzd4hqcvUhU8++gRZWVmYN3+epGMSPeYevPzSy/jwgw8DVpuLojikCUR6vR4Oh+PMUYS9e/bimd89gwcefAAzZ82UXHjW1dWF9955D2+8/obPs5kMw2DipIlYdcMqxMX7XqkGgEWLF2HO3DnY9N9NXqvVNpsN7779Lvr6+rD27rWYNNn38YofAkO03DOK8vS/uSgCfU4eDrdw3vZHHG36Q+ZbR9uwp8YsKWQqORZXZumwbr53BwZfBBEoabPi1UPNKO2wDStkfp/89JZ6h82Fz06Z4CzuxJgYBbIT1ciIVyEpRgl9lAzxURw0Cg5qBQeFjAXHMJCS5XhRhCCIcLhF9Drc6LHzMNncaLe60GJ2oKLDhvJOO8wOHizj2eKPktjvlz89RS4xWoEFY2NwVZbuBzE5K2RBs6OzA+Vl5YNeR+CFoAOgL/lL8pG/JN/nZfMXzMfPf/FzrH9q/ZBarjidzmGFoujoaKxYtQIXXnRh0KMxI5FOp8OVV16J48eOSz7WwPM8WltbQ1LRHIlSU1Ox9u61aGtpQ0FBgdflgiCgpqYGb77+Jvbs3oPc3FzmzLWfAAAbfElEQVTMmj0LWVlZSElNGfABpLu7G/V19Sg+UYyCIwUoLi5GVWXVoGc9x08YjwcfehA5OTkBnyvDMBg/fjwWLFyAjz/82OtyURRRfKIYz/3hOdx3/31YduGyQYvXSkpK8M8X/omtW7ZK6sMpCMKQVjVnz5mNqKgobNmyBdY+K9xuN/bt3YfOzk4sv2I5rrrmKowZM8Zv79Iecw8OHTqEjz/8GHt27/Hbkkyr1WLNrWswNWfqoM8nISEBt//4dpwsPonKykqv78liseD9d99HZUUlVqxagYsuvmhIc9B5nsfJ4pM4duwYZs6cGfB5RRqtSub1Zm53CxQ0I0T/dvlbR9uwu1payFRwLH401YDbZ0sboyyIwKm2Prx+uBXFbVYwGDxk8qJnHC4LZtDn8n0cw4DjPO2COm1ubKs0wyV2Q8YyGBOjQFqsAvFqOeLUcsQoZVDLWahkLGQsAxkLyDkWchZw8iJ4QYTzdLjsc/GwuQT0OT2FbC09TtT3ONHa5wLHAjKGAccwAXthnk2E52evkrOYnhyNizLjMDcjxqtLw/kqJEGT53k0NTShubk5FHc3qNjYWDz+xOPQarV+r3P9iuvR0tKCl/750oiOiVOr1Vi5aiV+fOeP/Z7jG41W3bAKH3/0Mb499u25fioRgeM4zJg5A//z8P/gD8/8AcXFxT6v53Q6UVpSioryCmzfvh0x2hioolQDViFdThesNit6zD0wm82SVvZXrFqB+QvmSz6PbEwwIn9xPnbv3O2z8M3tduPY0WN48rEnMW/BPFxx5RXIysqC3qAHy7Koq61DXV0dDuw/gD279qCysnLAqt6EzAlQKBQoLyv3Wu0LFDRramp8FpBlTszEilUrUF5WjuLiYoiiCKfTiaLjRaiprsEnH3+COXPmICc3B9OmTwPgqc5vaGhAyakSFBwuQFNTE1paWgZtj/TgQw/i2uuvlfSznDV7Ftb+ZC1+8+RvfH7ocrvd+ObgN6ioqMA7G9/BwkULMeuCWZh1wSy/fX4tFguam5pRWVmJwoJCfHv0W7S0tqCvtw8P/fyhURc0oxWcV1hwuAQ43D/s86uRQBBFVJvseKOwVdJ2uVsUoZFxuHaqHjfPTJC0GiiInhnmbxa04kRrX8CQCQAqGYPJRg3K2m3odfEBG7z7o+AYKMB4+oFaPOFQEL+bXKTgGCg4FkqOGfD/dl6AWxDh5kVYnAKcggAnL4LBdzPbOYZB9BBDoUsQwbEM8pI0mJMRg0VjYpBynlWVBxKSoGmz2lB0vAi8O7yNeXV6HV7814uYOGnioNeLiYnB3evuBsuyeOX/XpE02Wa4FAoFrr7majzy6CPnVcgEgJjYGPzumd9h9arVIftZpqamIicvB19v/Tpgn0Snyyl5DOZIUSgUWLx0MTTRGjz1+FM4ceKE30DF8zxMnSaYOoe/mg94ujtcf/31yBiTIen6HMchf3H+ma1fXwRBQFNTEz775DNs3rQZMpnszGohz/PgeR4ul8srCGu1Wvzknp+guKgYlRWVXvfrdrshDnJY3273PXdcq9UiMzMTf/zzH3HbLbehvb0dgGcFtqenBz09PaiqrILsA9mZIQGiKILnebjdbs/jBlhJffp/n8Ytt94ieedBJpPhxptuBMMwePQXj/q9XmdHJ0ydJhSfKIZMLoNc5pnZnjctD0qlEoIgoLW1FQ31DZ7nLPDg3Z6f79nPu7KyEhaLZdAP1ZFGo5B5nVF18AKcYZgcRaQTRKDGZMdrR1qwX0Lhj1sUESVjsSLXgBV5RigkbA33h8wNBa0oavG8TwSKjDKOwQ15RsxN16KgsRff1Ftwqs0KJ+8Jh0PJnAw8q47fPbjnP3gBsAo8rKf/hImnWwr1PwbHMOBFz21lsuFv9LsEEYIIZBlUmJURg4Xp2vNu4pFUIQmafdY+fPtt+Fa7OI5DWnoafv/c77Fg4QJJh+11Oh0efOhBGI1GvPjCi2hpaQlLCxKGZaBRa7Du3nV46OcPhfz+I8WMmTOw/un1eOKxJ2C324dc5MEwDDIyMvC/v/9fxMbFYse2HYGDpsMZsAXVucBxHObMnYMNb2/AL37+C+zetRtOpzPs1cf79uzDl5u+xB133SE5JCUlJWHdvetQV1eH4hPFg4ZiSd0VGCBGG4M7196Ja669Bs1NzT63sZ1O55AbrjMMg9y8XLz34XtYvWo12tvbBzzv/kAZzMx2lmWhVCrx6K8exR133RH0c5LL5bjlVk/Lst889RvYbb5/F/pXYM/eUdm1c1dQj1VVWYX29vZRFTS1Ks5r5cvhEuCMoHY0PzQigPouO/71TTMO1VskhUy1jMXKXCOuyzEgSsJK3tkrmVJDJhjg5ukJuG6qASo5i4x4FaalRONwvQVHGy0o7bDB7hahCDChSCrP93zWPfm40yB2w33iRc/KsQhgepIaealaTE9UY0qSBnKJ5zjPRyH5zt1uN7q7uwMWJgSrf9bw9Suux2uvv4b8/Pyg5kkrFAr8+M4f4+//+DsuvPjCoMZUBsKyLOJ18cjPz8f7H79/XofMfqtuXIXnX3wemRMzh3T+VK1WY/ac2Vj/9HosWrwIGRkZkit0eTcfsS2RDEYD/v3mv/Hk+icxNWcqoqP9j30MlReef0HysIF+sy6Yhft/dj8mZE4Y1mMzDIPExETc98B9+OkDP4VWq0W0NhqMj3cvh8Mx7Mk+kyZPwusbXsfsubOHHLoYhoEmWoPZc2bjXy//C7ffcfuwntPqm1fj1X+/iukzp0Or1Yal0ry5uVlSt4dIEquS4/t1tw63ZyuSnBuN3Xb8bX9j0CHzmql6RCsDHykRRaCk3Yo3ggiZblHEnRcknQmZAKCQschKUGNVnhHr5qXg7jnJmJ+hhYxlYOdFuIWhlBWODLcgwuoWwLHA/HQt7p2fgrvnJuOmaUbkpWp/0CETCNGKZkJCAp559hls+XILCgsK0djQGPBslD8syyImJgYZYzIwceJEXHzpxViydMmw+lHOmz8P02dMxwfvf4DtX29HeXk5WltahzTnWaVSITUtFZmZmVi6bClW3rBySAFbFaWCXq+XFJ5kMtmQHiM0nwO/w3EcLr7kYiQYE/D2xrdRUFCA2pragOdg9Xo90jPSsWDBAtx0y01nmmLrDXqMGz8O7W3tgR+cAUydJiQkDmzKr1Ao/E7F8aV/mlQ43Hb7bViyZAk++vAj7Nu7D9XV1TB1moL+PdBqtUhKSkJ9Qz3sNt+rdV2mLvzx2T/i+X88jyi19NfGVVdfBaVSiddeeQ2FBYVBH4VQKpWYmjMVK1etxOqbV5/5wBEdHQ2W8f5jarVaBz13qlarodPrBnyfMpkM2piBgTI3LxfP/+N5fPDeB9ixbQeqq6vR3d0taZfCYDBg0uRJmDN3DlauWomx48ZK+2YHwXEcFuUvQnp6Oj7/7HPs2rkLJ0+e9OrFGyyGYaBWq5GaloqcnBxookfXVlusSobvv6fS1vm502x24NldDTjR2ic5ZK7KM+KqbD1iVIHjQX8Lo1cPNaO4NXDhT//j3DcvBcuzdF4N/gFAJWcxOUGNcToVZqREo7zThtI2Kw7XW1DX43mvCTSHPdz6z366BBEsA2TGqzAzTYvJCWqMj1chNU555nwnARgxhPt8TqcTdXV1OFl8EqdOnkJdbR26urrQ3d0Ns9kMq9UKu90Oh90Bp9OJmNgYxMbEIiY2BvG6eCQkJCA5ORkpqSnIy8tD9tTskI9v7OnpwTcHvsHJkydRcqoEdXV1MJlMaGxo9PmmJZfLYTAYkDEmA8nJycicmIlp06Zh2oxpw1ohLSkpwbHCY5LeKFmWRW5eblCFASaTCc/94TmUlXq3nPIlY0wGnv3js5J/3j3mHhw7dgyHvjmEyspKtLa0wuVyoaO9A9oYLaKjoxEbG4v0jHRkZWVhau5UTJkyxWsldMf2HWhuClxElpSUhDnz5gxYLRRFEc1Nzdi5Y6ek5wwAMy+YiaysLMnXHwqXy4W62jocOXIExUXFKC0tRVNTE9pa2/wGu7T0NBiNRmRmZiJrShaypmRhw5sb8NWWr/wGVaVSifVPr8ea29YE/RwbGxvxyUefYPeu3SgtKUVXV9egr8Xo6GjkTcvDwkULceFFFyI3L3fA5bt37cZL/3zJ68ObwWDAI//vEb8tf7499i1KS0oHfOBSKBSYMXOGz5VXp9OJyopKFBQUoORUCaqrqtHV1YXOjs4z15HJZNDpdYiPj0fmxExMnDgRc+fNRcaYDMltkYLhdrtRXl6OfXv2obCwEDXVNairrUN3t7RzxXq9HtoYLdLS0zBmzBiMHz8eU3OmIntqdkh3YUbKc9uq0HVWk/Z4tRzX5iRgcsLoCs2jXZPZgd9ur0NpuzXgxB+3KCJazmFlrgFXZusRKzFkVplseH5fE0rapYfMBxak4tJJ8T5Dps/bCCJ67G60WlyoMtlwqqUPp9qsqDI7zzxmMBXgQ3V2uOQYBmPjFMhL0mBqcjTSY5VI1CoQo+LO636YQxXSoHk2nufR3t6OHnMPLBYLent7Ybfb4XQ44XA64Ha5oYnWIDo6GtHR0YiJ8YRNvV4f9HSfoXC73Whra0NLcwt6enrQ2toKURBht9vR3tYOg9GAqKgoyGQyxMXHISk5CQaDAQaDISxvVqHmcrlQV1cHm1Xaqq1SpcSECROCOpoAeH6O7W3t6OzshNvtRldXFzQaDdRqNTTRGiQlJYX8SMVo0tvbi/r6enS0d8BkMsFmtcFsNqO9vR1KhRJJKUmQy+RITEpEXHwcMtIzEBcfB47jcOzYMdx6863oMvluzQN4PiC8ufFNZGZmBv3c3G43ysvKUVNTg5aWFjTUN6ChoeHMCjUDBmqNGunp6Rg/YTxycnIwOWuyz9eI2Wz2+WFNJpMhY0wG1OrA06WCZbFYzvz+nh3qZDIZYmJiEBMbg/T09BFtM9bc1Hym2r2trQ1trW1wuVxobmqG1WZFamrqmelDKpUKBoMBiUmJ0Gg0SExMRFJyEmJjg2/yH0nqu+1wnbWCybEMjBpF2BppE29NZgfWb6tDeYct4Opff+HPqlwjrplqQIxKwnY5gLouO/6/XQ0ol9gn08mLeHBRKi6eGC/p3KcvDrcAi51Hj8ONxh4nKtutKO+worDZCrNTAMcAchZgGU9luSAGf+7Sdbp4kRdFiCLgEgAwQJJahrxENcbpozBeH4XkGAXiVDLERMlo9TKAsAXN0YrnedhsNqhUqlERKMno43Q6YbfZwXIs1Gq133DP8zxe+PsL+OOzf/R7XxzH4YbVN+Dp/33a5/hEqdxuN/r6+tDX1wfhrJAgk8sQrYn2PM8f+DmjYPE8D5vVBkEQ0GftA+/modaoIeM8f1c4GQeVSjUiH6zJD0d/yKzotEHBDh4yeVGEWsZhRa4B1+YYoJVyJhNAc48Tv/2qFtVddrASQqZbFPGzBam4MDMuZB843IIIu0uAzcXD4hDQYnGiqduO+m47arscaOlzwWR3w+4W4RYHPkdPGPWEyP6mGAKAKA6IUchgVMuQoJFjbLwSqXEqJMcqoVPLoFFwiJKxUMlZcBQuJaOgSUgEs9lsWHHdChz/9rjf6yQmJeKp9U8FHEdJCDm/NZkd+M22OlR12iCXEDJVMhYrcwxYMS0BaomrjB19Ljz63yrU9zg803YCXD8cIdMXXvBsa7t5Ea7TxUMuQYDdLaDPIaDP4T4zPMDlFsGdbtquPD020hCtgErOQi33TBHiTvfalLEMZBxDW+LDQEGTkAh3ougErrjsikHPUC7KX4S//P0vSE5OHsFnRgiJFE1mB9Zvr0NFh7SVTOXpiT83z0yAQuJ5SYuDx30fl6O1z+npVRmAUxDxswUpuGSSbsjb5cMl4nTPzNNRp///+7sd9X8X7On9f4qToUd7YYREuMyJmVj7k7WDbrGeKDqBTz/51OeUHULI+a3Z7MDT2+tQ3h44ZAqiZyXv2il63DY7UXLItLsF3PV+KVp6pYVMtyji/vkpuPQchkzAExxZxnNWmGM9K5RyzrNKKTv9NY5lQjqPnQxEQZOQCKdUKrFi1Qpk52T7vU53dzc+/fhTHC08GvaG8YSQyCACaOx24Jmd9ShptwYs/BFEzzSeq7N0uGtesuTt4F4njzVvl8Bkd0Mu4WyiCGDdnGQsz9L9YOZ5E//oFUBIhGMYBpmZmVizZs2g401LS0qx6YtNMJlCM+qSEBK5BNEz8edPez19MpXs91vle19fzjG4arIO6+anSHoMEUCn1YV7PiyD2eGWNIecYxncPisRV07RS25hRM5v9CogZBRQKpVYvGQx8hfn+91Cd7vdOHLkCDraI29cJyEkdARRRK3Jhn8caEJhY2/APpmCCCg4BldMisc9C6SHzBaLE7/4ogptVpeklUyljMXq6cYBE38IoVcCIaNESmoKrl9xvc/JNhzHYf6C+XjgwQeQlpY24s+NEDIyeEFEdacdLx9uwTcSxkr2r2QunxSPexemSnoMUQTqux1Yv7UGDT2OgGcyRQBRchbX5xjwoxwjhUwyADWKJGSU4DgOS5YuwYH9B9DY0Ai73TO2UaPR4OZbbsZdd9+FpOQk6v9KyHmKF0RUm+x4o6AV+2t7JIVMhYzB8onBhczqLjv+vLsB1V2eFkaBaBQcrszSYVWe8ZwW/pDIRO2NCBllysvKse7udSgrLYPBYMAL/3wBCxctBEN93gg5b/GCiKpOGzYcbcPuanPAkMmLIuQsixVT9bhjrrS2Z6IIlHfY8OKBJpS0WSVVYmuUnpB54zQjouQ0fIB4o6BJyCj07jvvYv/e/Xjm2WcGzH8nhJx/+kPmW0fbsEtiyIySsbgyS4+750kLmYIIlLZb8cqhZhS3Bp5dLsKzknnVFB1uzDMiikaMEj8oaBIyCtntdiiVSlrFJOQ8179d/mZhq+SVzP6JP7fMShr0uv0EEShps+L1Iy043tIXMGQCnjOZV07R46ZpFDLJ4ChoEkIIIRFIED2FP68XtGJPjbSQGa3gcG22HqtnJELBBU6ZggicauvDmwWtON7cByBwyFTKPIU/q/IMtF1OAqKqAUIIISTCCCJQa7LjtSMt2Ceh8MctitDIOazMMeC6XKP0kNnahw2F0kOmjGOwIteAFblU+EOkoaBJCCGERBARQEO3HS8dasHBOmkhM1rOYUWOAVdPNUgKgP3b5W8GETLBADdNS8B1OdIegxCAgiYhhBASUdotTrx4oAkHJfTJdIsiYpUcfpRjxJVT9IhWBt7KFk8X/rx+pAVFLdJCplsUcfcFybg6W099MklQKGgSQgghEeT5fY042tQbxEqmEVdM0SFGJS1klnfY8OqhFpxolVb44xRE/HReCq6YoqOxkiRoFDQJIYSQCPHZ8Xbsr7NAGeCMZX/IXJlrwPIpOsSoAr+diyJQZbLhXwebcLItcAuj/se5f34KLs+ikEmGhoImIYQQEgHaLU78+2hbwLni/OnCnxW5BlyVrZcWMgHUme34255GlHXYJDVjd4siHliQiosnxkNFIZMMEb1yCCGEkAjw2YkOdNvdkloY3ZBrwDVTDZJDZnOPE3/YXo9T7dIm/jh5EffPT8VFmXFU+EOGhVY0CSGEkHPMyQv4orwLUZz/UNffjP3abD2uzTVCLTEAmqwuPLmlGnVmB2QsI2kl88FFnpCppmbsZJgoaBJCCCHnWE2HDb1OAQo/KVAQASXH4uosHW6cniD5vKTFweOhzyvR2OMMeO4T8ITMn85PoZBJQoaCJiGEEHKOlbdbIQtQYT41QYOV06SHTLtbwNoPSmGyuSWHzHvnpeCySTpqYURChl5JhBBCyDnW1OOE4GcitCgCGjmLHEMU4qKkrQ9ZXTxufacEnTZ3wOIiABAA3D0nGVdkUcgkoUUrmoQQQsg5ZnMJEEX4rNIRAahkLIwauaT76rK58cCn5ei2u6GQEDI5lsGtMxJw9RQ9tTAiIUdBkxBCCDnHNAoWjJ9MyDCeKvBOmwt+sigATyBt63Xi15uq0dbnkrSSKeMYrMw14vqpBlrJJGFBrypCCCHkHDMMslrJAOh18ihqt6Hb6vZ5HVEEGrodeGpLDep7HJD5S61niZKzWJFrxKo8I4VMEjb0yiKEEELOsaxEDfhBGg9xDIPqDhs+O9GOLqsLwlnHOZ28gCqTDc/trEd1lwNcgJApAlArOFyVrccNeQbqk0nCirbOCSGEkHMsQ6dCnJJDn4P32bCdZTyrmv8tNaHXKWD+2BjEKDnwAlDXbccnxZ2oNtnBSmjGrlFwuHxyPG7MMyJKTi2MSHgxouinzI0QQgghI+b/9jfinROdiBqkFREvinALQJyKQ4JaDgcvoKnXBbcgQi6hGbtGwWF5lg6rpxmpTyYZERQ0CSGEkAjQ2O3A/Z9XoM/JBzxjKYiAABEcEzhc9ouSs7hqih43UsgkI4gOZhBCCCERIDVOiTXTjLC5A6//sAwgCyJkKmUsrs7W00omGXEUNAkhhJAIcdVUA5aOi5UUNqWScQx+lGPAjdMSEEUhk4wwCpqEEEJIhFDKWKybm4SFY7SwDjNs8qIIMMCN04xYmWek6nJyTtAZTUIIISSCiABqO21459t2bKvsBgNIar5+NqtbQKJahptnJeGyifHUJ5OcMxQ0CSGEkAgjikCLxYGvK7rx5alONPa6oOJYDFKQDgBwCSLsvIglY7S4cooec8bEBOyrSUg4UdAkhBBCIpAIoM/B41RrHw43WHCw1oJqswMcA6/w6BY97Y1mJWuwcHwcpidrkB6vklwsREi4UNAkhBBCIpggiuix82ixONFgdqChy47OPhcsp5u769VypMapkBqnRLJWjoRoBRQy2ionkYGCJiGEEDIKiADcvAiHW4CTF8CfnkMp51ioZCyUMha0S04iDQVNQgghhBASFrS2TgghhBBCwoKCJiGEEEIICQsKmoQQQgghJCwoaBJCCCGEkLCgoEkIIYQQQsKCgiYhhBBCCAkLCpqEEEIIISQsKGgSQgghhJCwoKBJCCGEEELCgoImIYQQQggJCwqahBBCCCEkLChoEkIIIYSQsKCgSQghhBBCwoKCJiGEEEIICQsKmoQQQgghJCwoaBJCCCGEkLCgoEkIIYQQQsKCgiYhhBBCCAkLCpqEEEIIISQsKGgSQgghhJCwoKBJCCGEEELCgoImIYQQQggJCwqahBBCCCEkLChoEkIIIYSQsKCgSQghhBBCwoKCJiGEEEIICQsKmoQQQgghJCwoaBJCCCGEkLCgoEkIIYQQQsKCgiYhhBBCCAkLCpqEEEIIISQsKGgSQgghhJCwoKBJCCGEEELCgoImIYQQQggJCwqahBBCCCEkLChoEkIIIYSQsKCgSQghhBBCwoKCJiGEEEIICQsKmoQQQgghJCwoaBJCCCGEkLD4/wFZTF8NwIi5ogAAAABJRU5ErkJggg==" vertex="1" parent="1">
          <mxGeometry x="640" y="328" width="166" height="59.82" as="geometry" />
        </mxCell>
        <mxCell id="LVvw4arzvhDbE_gQbjfP-14" value="" style="shape=image;verticalLabelPosition=bottom;verticalAlign=top;imageAspect=0;aspect=fixed;image=data:image/png,iVBORw0KGgoAAAANSUhEUgAAANgAAADqCAMAAAD3THt5AAAA0lBMVEX///8cHyoAAAAaunMptHMAtmkAt2yXl5sACBoAABHy8vIAtWYAAAgPuXDx+vb1/PkArmfHx8ePj49ZyJLM7Ns7un7b29t9fX21tbWi3b5Fw4epqal40KPs+PJhypat4caI1q+/v8EzMzMAABBjY2Pm5uYRFSLj9ex7zKO25c0VGSUMEB+hoaERERFmZmaFhYVJSUlwz6DI69kqLDbQ0NIoKChYWFhTU1OZ27otvnzK7NtdX2VNT1Z0dXo4OkIhISE/Pz9HvINAQkoAqVllZmwvMjvAXQstAAAQFElEQVR4nO2dfX+aPBfHVUZqVaQ+1FZ8rK21tradznWya1u33dv7f0t3cpJAAglFh0L98PtjUyCHfEnOyUkEWigcShXyj20f7HwHUufHJflvcLZKuyaJqvK9VLoiHwZnZ79madcmOS2uH4qnDOzDh7O7etoVSkZXn06LRQEMo3XTrlMC6nwr3RcDYB/OPrx3V6tclG6LxRAYRhu+a1frXZeLRSUYRhu/29Df+HFdLGrBcH8cpV3DnTT9jzqXFgyjnbfTruX2anLnigDDaMtB2hXdTpe35WIxBhhxtZSruo3WP2r3xZhg2NXmadc3pip/SiGsCDCM9utduNpJ6SGMFQmG0fqZd7XLYtC5mGpRYBhtk3bNI9X5FnYu0P313ykcMdSSZdjV8OREjVUsP/T4Qe1zLVpWJzQnZaVzFYu3peeKcNxIR4YnNBnMsq7uT9VY96X/pvKh9p0eLWsTGjw5UWMVTz81wofPWtr+eJ6lCQ12rls11sP1Ql1k9UGLlp0JzeJU41z3pe8Vbamuvj+OD1f3CNGZvwqr9rsTVbDez3Lo5zN/hXMVr94qPPulD/3pZln+zD/kXKWTOAbmeldLcy1rcarJn+5Lf/TOJWujd7W0sqzG32sNVu33Or6ZwVLvammE/sDMX1C5fLmdqYgsq3Xw0P+sc67bWnN7axGu1j9oltULzfw95wrmT/FkjzUTtcMmIie6Xnj9YwvnkjVQTGgOvkB3om6vcrn3dlm9Qq52+CVVJdht7TluiNdpdCaup6aQM6rAat8i86d48ic0onMlYDimwmCn92/mT/HEsixhXrb+u0OY3VFBsIfTWPlTPOEJjZBOTf+UkjT+hmSw26jJyS7q+s51cv1QLKcEdpuEc6l1eU9OlBZYLdnm8tX5VqOjyHGB+csNxwUmLDccFZi43HBMYJVa8UjBTnOwRJWDcdVtJvp11l2e30Ud/17A6v87o/pAvq1+4Q9nxwHGJyPn+DP7PeLYwNr843GB/Zp5U+TjAjv3Z/7HBfbh2MFwgDxCsLPz/qa7ifyx+T2CnY1jrKq9P7CY93K8P7BlvBO8O7DzmCfIwRJWDsaUg3HlYAkrB2PKwbhysISVgzHlYFw5WMLKwZhyMK4cLGHlYEw5GNd7Azs7NjB7eccU8wTvBWxr5WAJKwfbVTlYwpLAThO6G1hUo5wBsGJtt4cj9Jr+J94jlh5Y8aGU6H3WzcAz/emB4XMXt3wASS96H3BWwHB/jH4eM67Wv2sh0+mCRT9BG1Pqx45TBov9WGaEWfULMw4JpnlA+PTTP4R+7WPHB3xSYl3UPvq869MF2hdm4FPt/EzaDiKPZii12/MgEY8dH7C9aFW0rxcolzWvF9BrUdY+GZnwYzNxxJ/QUHQe1Qsh9GronCuZZ9J2UPjlU96Fjp9lRTx2fJvYqL+1IlztOZ4F7WPHD9cHdi5ZU+U7qOB6P8R4EjXiseM/CWfWW2v941r3YqO3nh1e/9656EEU4WpRlz2isZNLqf9Rekc51U5oTnSvbfnnzCxJbR3aolr58CNXlNa6d2CoBiP9EJgN55LV079vS04fopKWf3qmf1+KeInTqZBlad+JFHvsO7w6v7UpOp/Q6N+JVPqW9sgVpSvthAbqPdW/E+nvVvllCtJMg+HtEc+1bV84liWp3/QJ1dcipzA52UVrrauphDtpOpOTXaQdf8OK8cKxTKlZ0/Q7WQef+f+79FmW2Aszlj/F0/qHLstiWAmtHqegnm6Rhqj8kJXJyS7Sj1y7vHAsS1K72q4vHMuUwqtr99d/szc52UWLB8nVYi3zvA+JK9i3pYv3GOJ1mrLfHO5rmZ6c7CKYiP3T70yZ1cl1uou7+1PlmJwrV65cuXLlypUrV65cuXLlypUrV65c22t61Vs0L8MrhZ3eSe+yk8QKYqXR6/UuGwdZEl98nkxeO/ChRCXfoTG9YJtLN+yHosrjhBXxjsE2Jo94SxN/eBSLX77iQ/kNOo0XbmpygJtbmuREncJVSZDwU9eFuP2G1ZZ8fhRsTMiGJj9aBOuRDRSs8lE0Vdo7GoBNm9JJvbp1XuXtj7QTPZHPT7KJn4VosMqjbKr0sufVcagV7SOfv0zYSS/ovjX99rPZ6zV/ishQSf5D+trfEQFG2+tjc7Fo3lBTe/6tkLfVd+h/lYVQ/ym9ssybOhOvYQod2MNiAFDS35L0YED/mUeNBvbnj/vlYmCPXiwAB6IXGaKJcCfljX+dT8jHCXx8EppYD9YM7Hku7Ts0whnFSDbh1YdK3YjHQnekHz9yaLgQn9kBerAv+P8voq293+gCYOvgBgL2Gqwl7YG001VKtFxF7JRvgImBdP9i4d7XJQMDrwjckkLa6YV+bAARbUTvfhw9GOx5KhxQIbAGAws1JdbC74u0qo9yd9WD0XHysXe4X0C1YB/FPsZ0KW7jmYrQwyLC/YQdPXluHAZOCxYcUD3xDGnKvgfzFM0ALVj4eXKAbFELpuMqebc/QMznkR4UmVI9iUZe9o62PRgPFbwNhMJRYLiJn8VesO/bQ6K7YvMyLH6tv7Aavvplo8Gwpj2/3fY8kmnBXsTWUQgiJND7UfxNMKLOMwWbJFJ/rbRgi6ADBaoHlaPNFmMck8Tcbb9upgWjQU9b7pFWWZF5iPVVg7EEc7/32WrBaM6re5rIS32vxF4FYOKgvtCAQXvvd66pB6NNJteKX2Qh9f0u8ANuM2CLmniSLtGan2R/0oOxGY1w+soN6z5TsQO++vy0hOdkdKDj87EvQh+92X9YjABjAf0L61t0/QBqNxF7UsenoS30CENUpTcp+WCQf13w5SBoZWGYODSYN1Q9PV+8sMGV9ChwJX92tfC/8vzxlUE9MbAO2166eG4+s1WdPd8dHQlWeC4FRHZcyR2O5cvQgB3p4MepFzw6n1WW0gMrdKRFsyfSESte/+Lis05emrcO8zLR/zzt/WnA3svNjZSRrskGIZFbswWqx48sJ3/GB9zIM9AG2UQTEOo/eARokqMviTHe5xbeRXrJyqMilc40/iSq0rhqaBbEK53G1dX62G76zpUrV65cubKuTatfT7sO+5BjWsiy065F8mpXDcMwR2lXI3mtTAyGNvC5PcI6lsazkWUYVfpHGjdVhKpH429tq1plPbGLcK88GrBCwfubmscG5ikH21FyXLLrEXGqXt+6HnZdaxDAto6K0QW6WHPyYbV0kV/ZwdixTOQu58Khc3wohOdRyzCryGjNCwrZMxXyaOhaUKY74JtWxJwNVpcWifykKgO5WPDyzcgxbWbQweGUfA+cqk42jgoIIbOFQ5RrIssDGwyrJBgblmUafu1bJg7KuEKGSfbhvSYKoq36lmniCxL4E8IjxIoYFqouWeWXJMbbYBV24pqgatsv1N642JYp2fpKyoxIEyPLcliVvsp1gLFjUyAnG+IvxDYH6zIqqEq174GRgafQrbI6ws6xaHKOrw6vviNUsV+lW2lBZNLL0Sfm7MJQMGeYXqm2Q6+tbKuNR3U0wjxkh0NHeSvwl31dXMwcANhyVKXNU/fqgS+x6xhQT9QSwNC8ik+FG8WkpzV9MrtFmgV2kv995g3kGMhwHGyWWKx2BbAWvvaUAMtrsbuq0haAzVsIgB1OIfXXryY0FQEzXIS7leEs++COYxMXou0/GxO7vPItaEfDdDft2WA2ck1osxUzODAQOdtw1G7P+1CMXZABzZ1oB2zfYXqa+jKwzXK5dEjt8f/LIe12tkNsmdSWhXxbBMzAMLi6rT6p1gbvRJKXkR5grigY/uTw+hVWuEkMz4fr5JzsOgKYUfX8agPt7Io9oMUK2kPTa2pybtMzX5i5VakrEgWjogMszLfspW8LwHCxIW/ZelWoAt9gkA2Ua+PvIc0sti25Po4PhgRXHpl+gk66h2hmjHhTDz0DTMxpg2D+SZdI6uPU1sYHs4SYRQKqKfiz14TAJRw4QuLlxZpVeZO1LCOwjzQ7rTSZhCDJi6GpB7SYDMb5dGBhWy1uC8BMMeSSg8XwAR3HpmBWqyDukL5Sq6jvmZd2zch5IC0nGEZoH1SPAJiBkBwJRs4jz0DJxYU6QPCQBy5C4g/AJHTQ2tJwL1YnODiNEKtzGAx4SCMCxUaxz2bl0SaUJ+jABoRiLB8LAdn2wr2orhQ+hl7PDIDhw0x5cKXGBmow6NEbFiBm4X2kk9smHX6Xc/kAHRh8acu2RiwAKcCIeS981E3uG0Ew7ItWfyypzy+CAowMkOTqgrMV1PsKczY+40Gs1fXhdGD98Gko0FgJVugjL27TCz1XgUENkSSLhxcFWJuN/G7IxWj3pG69YgkJwDm8p+vAoAsHbA2YLRWYGD5cv6wKLCyI6QqwGRvmoeIqMNot7LHBMhUy7jp2JBg5LthiANZSg8GVQGDoq+m7p6IrOmG5b7QY5CSB8MCh2ZFjx+SZpCtmHiEwGIFVtnRgIy9UwqA2U4JtwsHDkwJsjuglcq1w8IB9fXFLe0wnBnRrZFcM2FqxKK4Esy0WPuqmMHYFwLCFUMEIsDtET0R6cMiprfAQUJgb4LL1CDCYnAUmWWMW05VgUAsSPrpISDYCYDZSpwkaMItNNUg4Dg7s4Cvh1nd5/qIDm/u+6clgCYcajI/f0M+FIiIYCZ5y2hQAkzr/HBL3Asvgq9LgQyKvlJ4yrXjddGB1SJukOnS5LTUYC6RtKUsIgpFx35An5PwbpDpis9i+wwytAAZkW7RfyAPzjLu6NqW6gxgjXMEB4rY0YHOYpvXpDFMDRqaFliuS3SHbBzPQ0Duj7fq9Da6H5Xj7ZpaXH9eRdPl5EhEC89p7YAZsGX6urQajs0oZJQRGJiCWPzGYuwgNBTA87ZvTU9I4wONeF2rDVkjsDfKnOEPcuZdeo81ghx0Gg1q04Tg6oeerLV3Blg5sjIJLCwowmL6a7nj0dd5dWiQ+s5Vo2hURTvuc5Xho0KmRNywv4btpLMfjloX8yfUKakmm3e3ZbNU3vemfAEZ/oDCGDlsD6Pu2hqItLdiMZW2CM4TB8DWmixRs+ciqMoekUdElV9dieYRlCbkfTwn5IgzrgHShiKxfYMHFpyFPACsYbNWDB7WxxpYOjM3uxVFCBYbHVp4AYSxvjYiC2S1vmQq3w0BdChdrecht1/S2kz0sr4PklYG1uU0eWVeWaMvhtrRgK9rGQsTBiSAKgeFu7pAGw1d46Ts+H8fIKhssArrBU2zcKuzBabwU+ucOaX1yKmS2uME+3uKNHm0oaVr+gN7ltkzBFl9XDMsV/B1kE6mOHKxGo/lM3OUP0LPRZjweqVIv2NOdhxaDZ/NNfzhcjoXQHzjz1+6mO5fnzdSWtDg8GNQHyuq2Amsf20iReWRGJHpoU6a3lGWwvpgmbqsMg8HyQ3B2GlsZBrtD4QWg+MomGIlGY1M9k4ipTILZVUR/45HntFspk2AzuppvIMUMKa7IDz6ZA5sjmgM5ytEtnvqtVmvXoWJvGldxBlp1g7/XHoFm7dVKETb+D+BTjOoxLS7wAAAAAElFTkSuQmCC" vertex="1" parent="1">
          <mxGeometry x="910" y="305.90999999999997" width="96" height="104" as="geometry" />
        </mxCell>
        <mxCell id="LVvw4arzvhDbE_gQbjfP-15" style="edgeStyle=orthogonalEdgeStyle;rounded=0;orthogonalLoop=1;jettySize=auto;html=1;" edge="1" parent="1" source="LVvw4arzvhDbE_gQbjfP-4" target="LVvw4arzvhDbE_gQbjfP-11">
          <mxGeometry relative="1" as="geometry" />
        </mxCell>
        <mxCell id="LVvw4arzvhDbE_gQbjfP-17" style="edgeStyle=orthogonalEdgeStyle;rounded=0;orthogonalLoop=1;jettySize=auto;html=1;" edge="1" parent="1" source="LVvw4arzvhDbE_gQbjfP-10" target="LVvw4arzvhDbE_gQbjfP-11">
          <mxGeometry relative="1" as="geometry" />
        </mxCell>
        <mxCell id="LVvw4arzvhDbE_gQbjfP-20" style="edgeStyle=orthogonalEdgeStyle;rounded=0;orthogonalLoop=1;jettySize=auto;html=1;exitX=1;exitY=0.5;exitDx=0;exitDy=0;" edge="1" parent="1" source="LVvw4arzvhDbE_gQbjfP-12" target="LVvw4arzvhDbE_gQbjfP-13">
          <mxGeometry relative="1" as="geometry" />
        </mxCell>
        <mxCell id="LVvw4arzvhDbE_gQbjfP-23" value="&lt;font style=&quot;font-size: 14px;&quot;&gt;Deploy&lt;/font&gt;" style="text;html=1;align=center;verticalAlign=middle;resizable=0;points=[];autosize=1;strokeColor=none;fillColor=none;" vertex="1" parent="1">
          <mxGeometry x="440" y="600" width="70" height="30" as="geometry" />
        </mxCell>
        <mxCell id="LVvw4arzvhDbE_gQbjfP-24" value="&lt;font style=&quot;font-size: 14px;&quot;&gt;Validate&lt;/font&gt;" style="text;html=1;align=center;verticalAlign=middle;resizable=0;points=[];autosize=1;strokeColor=none;fillColor=none;" vertex="1" parent="1">
          <mxGeometry x="440" y="440" width="70" height="30" as="geometry" />
        </mxCell>
        <mxCell id="LVvw4arzvhDbE_gQbjfP-29" value="Vulnerabilities" style="text;html=1;align=center;verticalAlign=middle;resizable=0;points=[];autosize=1;strokeColor=none;fillColor=none;" vertex="1" parent="1">
          <mxGeometry x="720" y="480" width="100" height="30" as="geometry" />
        </mxCell>
        <mxCell id="LVvw4arzvhDbE_gQbjfP-31" value="&lt;font style=&quot;font-size: 14px;&quot;&gt;Duplications&lt;/font&gt;" style="text;html=1;align=center;verticalAlign=middle;resizable=0;points=[];autosize=1;strokeColor=none;fillColor=none;" vertex="1" parent="1">
          <mxGeometry x="720" y="560" width="100" height="30" as="geometry" />
        </mxCell>
        <mxCell id="LVvw4arzvhDbE_gQbjfP-33" value="&lt;font style=&quot;font-size: 14px;&quot;&gt;Dep. store&lt;/font&gt;" style="text;html=1;align=center;verticalAlign=middle;resizable=0;points=[];autosize=1;strokeColor=none;fillColor=none;" vertex="1" parent="1">
          <mxGeometry x="960" y="480" width="90" height="30" as="geometry" />
        </mxCell>
        <mxCell id="LVvw4arzvhDbE_gQbjfP-41" style="edgeStyle=orthogonalEdgeStyle;rounded=0;orthogonalLoop=1;jettySize=auto;html=1;" edge="1" parent="1" source="LVvw4arzvhDbE_gQbjfP-39" target="LVvw4arzvhDbE_gQbjfP-13">
          <mxGeometry relative="1" as="geometry" />
        </mxCell>
        <mxCell id="LVvw4arzvhDbE_gQbjfP-42" style="edgeStyle=orthogonalEdgeStyle;rounded=0;orthogonalLoop=1;jettySize=auto;html=1;exitX=0.5;exitY=1;exitDx=0;exitDy=0;entryX=0.5;entryY=0;entryDx=0;entryDy=0;" edge="1" parent="1" source="LVvw4arzvhDbE_gQbjfP-40" target="LVvw4arzvhDbE_gQbjfP-14">
          <mxGeometry relative="1" as="geometry" />
        </mxCell>
        <mxCell id="LVvw4arzvhDbE_gQbjfP-44" style="edgeStyle=orthogonalEdgeStyle;rounded=0;orthogonalLoop=1;jettySize=auto;html=1;exitX=0.25;exitY=1;exitDx=0;exitDy=0;entryX=0;entryY=0.6;entryDx=0;entryDy=0;entryPerimeter=0;" edge="1" parent="1" source="LVvw4arzvhDbE_gQbjfP-12" target="LVvw4arzvhDbE_gQbjfP-24">
          <mxGeometry relative="1" as="geometry" />
        </mxCell>
        <mxCell id="LVvw4arzvhDbE_gQbjfP-48" style="edgeStyle=orthogonalEdgeStyle;rounded=0;orthogonalLoop=1;jettySize=auto;html=1;exitX=0.25;exitY=1;exitDx=0;exitDy=0;entryX=0.014;entryY=0.533;entryDx=0;entryDy=0;entryPerimeter=0;" edge="1" parent="1" source="LVvw4arzvhDbE_gQbjfP-12" target="LVvw4arzvhDbE_gQbjfP-23">
          <mxGeometry relative="1" as="geometry" />
        </mxCell>
        <mxCell id="LVvw4arzvhDbE_gQbjfP-50" style="edgeStyle=orthogonalEdgeStyle;rounded=0;orthogonalLoop=1;jettySize=auto;html=1;exitX=0.25;exitY=1;exitDx=0;exitDy=0;entryX=0.017;entryY=0.6;entryDx=0;entryDy=0;entryPerimeter=0;" edge="1" parent="1" source="LVvw4arzvhDbE_gQbjfP-13" target="LVvw4arzvhDbE_gQbjfP-28">
          <mxGeometry relative="1" as="geometry" />
        </mxCell>
        <mxCell id="LVvw4arzvhDbE_gQbjfP-51" style="edgeStyle=orthogonalEdgeStyle;rounded=0;orthogonalLoop=1;jettySize=auto;html=1;exitX=0.25;exitY=1;exitDx=0;exitDy=0;entryX=-0.01;entryY=0.567;entryDx=0;entryDy=0;entryPerimeter=0;" edge="1" parent="1" source="LVvw4arzvhDbE_gQbjfP-13" target="LVvw4arzvhDbE_gQbjfP-29">
          <mxGeometry relative="1" as="geometry" />
        </mxCell>
        <mxCell id="LVvw4arzvhDbE_gQbjfP-52" style="edgeStyle=orthogonalEdgeStyle;rounded=0;orthogonalLoop=1;jettySize=auto;html=1;exitX=0.25;exitY=1;exitDx=0;exitDy=0;entryX=-0.01;entryY=0.5;entryDx=0;entryDy=0;entryPerimeter=0;" edge="1" parent="1" source="LVvw4arzvhDbE_gQbjfP-13" target="LVvw4arzvhDbE_gQbjfP-30">
          <mxGeometry relative="1" as="geometry" />
        </mxCell>
        <mxCell id="LVvw4arzvhDbE_gQbjfP-53" style="edgeStyle=orthogonalEdgeStyle;rounded=0;orthogonalLoop=1;jettySize=auto;html=1;exitX=0.25;exitY=1;exitDx=0;exitDy=0;entryX=-0.01;entryY=0.5;entryDx=0;entryDy=0;entryPerimeter=0;" edge="1" parent="1" source="LVvw4arzvhDbE_gQbjfP-13" target="LVvw4arzvhDbE_gQbjfP-31">
          <mxGeometry relative="1" as="geometry" />
        </mxCell>
        <mxCell id="LVvw4arzvhDbE_gQbjfP-54" style="edgeStyle=orthogonalEdgeStyle;rounded=0;orthogonalLoop=1;jettySize=auto;html=1;exitX=0.25;exitY=1;exitDx=0;exitDy=0;entryX=0.01;entryY=0.567;entryDx=0;entryDy=0;entryPerimeter=0;" edge="1" parent="1" source="LVvw4arzvhDbE_gQbjfP-14" target="LVvw4arzvhDbE_gQbjfP-32">
          <mxGeometry relative="1" as="geometry" />
        </mxCell>
        <mxCell id="LVvw4arzvhDbE_gQbjfP-55" style="edgeStyle=orthogonalEdgeStyle;rounded=0;orthogonalLoop=1;jettySize=auto;html=1;exitX=0.25;exitY=1;exitDx=0;exitDy=0;entryX=0;entryY=0.467;entryDx=0;entryDy=0;entryPerimeter=0;" edge="1" parent="1" source="LVvw4arzvhDbE_gQbjfP-14" target="LVvw4arzvhDbE_gQbjfP-33">
          <mxGeometry relative="1" as="geometry" />
        </mxCell>
        <mxCell id="LVvw4arzvhDbE_gQbjfP-56" style="edgeStyle=orthogonalEdgeStyle;rounded=0;orthogonalLoop=1;jettySize=auto;html=1;exitX=0.25;exitY=1;exitDx=0;exitDy=0;entryX=-0.017;entryY=0.533;entryDx=0;entryDy=0;entryPerimeter=0;" edge="1" parent="1" source="LVvw4arzvhDbE_gQbjfP-14" target="LVvw4arzvhDbE_gQbjfP-35">
          <mxGeometry relative="1" as="geometry" />
        </mxCell>
        <mxCell id="LVvw4arzvhDbE_gQbjfP-57" style="edgeStyle=orthogonalEdgeStyle;rounded=0;orthogonalLoop=1;jettySize=auto;html=1;exitX=0.25;exitY=1;exitDx=0;exitDy=0;entryX=0;entryY=0.5;entryDx=0;entryDy=0;entryPerimeter=0;" edge="1" parent="1" source="LVvw4arzvhDbE_gQbjfP-14" target="LVvw4arzvhDbE_gQbjfP-36">
          <mxGeometry relative="1" as="geometry" />
        </mxCell>
        <mxCell id="LVvw4arzvhDbE_gQbjfP-58" style="edgeStyle=orthogonalEdgeStyle;rounded=0;orthogonalLoop=1;jettySize=auto;html=1;exitX=0.25;exitY=1;exitDx=0;exitDy=0;entryX=0.011;entryY=0.433;entryDx=0;entryDy=0;entryPerimeter=0;" edge="1" parent="1" source="LVvw4arzvhDbE_gQbjfP-14" target="LVvw4arzvhDbE_gQbjfP-37">
          <mxGeometry relative="1" as="geometry" />
        </mxCell>
        <mxCell id="LVvw4arzvhDbE_gQbjfP-59" value="&lt;span style=&quot;font-size: 48px;&quot;&gt;&lt;b&gt;Dev Environment&lt;/b&gt;&lt;/span&gt;" style="text;html=1;align=center;verticalAlign=middle;resizable=0;points=[];autosize=1;strokeColor=none;fillColor=none;" vertex="1" parent="1">
          <mxGeometry x="386" y="80" width="420" height="70" as="geometry" />
        </mxCell>
        <mxCell id="LVvw4arzvhDbE_gQbjfP-61" value="Push&lt;div&gt;Code&lt;/div&gt;" style="rhombus;whiteSpace=wrap;html=1;" vertex="1" parent="1">
          <mxGeometry x="216" y="450" width="80" height="80" as="geometry" />
        </mxCell>
        <mxCell id="LVvw4arzvhDbE_gQbjfP-64" value="&lt;font style=&quot;font-size: 14px;&quot;&gt;&lt;b&gt;Dev_2&lt;/b&gt;&lt;/font&gt;" style="text;html=1;align=center;verticalAlign=middle;resizable=0;points=[];autosize=1;strokeColor=none;fillColor=none;" vertex="1" parent="1">
          <mxGeometry x="98" y="612" width="60" height="30" as="geometry" />
        </mxCell>
        <mxCell id="LVvw4arzvhDbE_gQbjfP-60" value="Push&lt;div&gt;Code&lt;/div&gt;" style="rhombus;whiteSpace=wrap;html=1;" vertex="1" parent="1">
          <mxGeometry x="216" y="176" width="80" height="80" as="geometry" />
        </mxCell>
      </root>
    </mxGraphModel>
  </diagram>
</mxfile>
